<svg width="500" height="400" viewBox="0 0 500 400" fill="none" xmlns="http://www.w3.org/2000/svg">
<rect width="500" height="400" fill="#8D8D8D"/>
<rect x="10" y="10" width="480" height="380" fill="#EDF6FF"/>
<rect x="10" y="10" width="480" height="280" fill="url(#paint0_linear)"/>
<path d="M259 190H379V390H259V190Z" fill="#464863"/>
<rect x="274" y="175" width="90" height="15" fill="#464863"/>
<rect x="299" y="157" width="40" height="18" fill="#464863"/>
<rect x="309" y="143" width="20" height="14" fill="#464863"/>
<rect x="316" y="118" width="4" height="25" fill="#464863"/>
<rect x="268" y="200" width="15" height="20" fill="white"/>
<rect x="355" y="200" width="15" height="20" fill="white"/>
<rect x="326" y="200" width="15" height="20" fill="white"/>
<rect x="297" y="200" width="15" height="20" fill="white"/>
<rect x="268" y="234" width="15" height="20" fill="white"/>
<rect x="355" y="234" width="15" height="20" fill="white"/>
<rect x="326" y="234" width="15" height="20" fill="white"/>
<rect x="297" y="234" width="15" height="20" fill="white"/>
<rect x="268" y="268" width="15" height="20" fill="white"/>
<rect x="355" y="268" width="15" height="20" fill="white"/>
<rect x="326" y="268" width="15" height="20" fill="white"/>
<rect x="297" y="268" width="15" height="20" fill="white"/>
<rect x="268" y="302" width="15" height="20" fill="white"/>
<rect x="355" y="302" width="15" height="20" fill="white"/>
<rect x="326" y="302" width="15" height="20" fill="white"/>
<rect x="297" y="302" width="15" height="20" fill="white"/>
<rect x="152" y="234" width="110" height="156" fill="#464863"/>
<rect x="160" y="244" width="15" height="20" fill="white"/>
<rect x="240" y="244" width="15" height="20" fill="white"/>
<rect x="213" y="244" width="15" height="20" fill="white"/>
<rect x="187" y="244" width="15" height="20" fill="white"/>
<rect x="160" y="278" width="15" height="20" fill="white"/>
<rect x="240" y="278" width="15" height="20" fill="white"/>
<rect x="213" y="278" width="15" height="20" fill="white"/>
<rect x="187" y="278" width="15" height="20" fill="white"/>
<rect x="160" y="312" width="15" height="20" fill="white"/>
<rect x="240" y="312" width="15" height="20" fill="white"/>
<rect x="213" y="312" width="15" height="20" fill="white"/>
<rect x="187" y="312" width="15" height="20" fill="white"/>
<rect x="160" y="346" width="15" height="20" fill="white"/>
<rect x="240" y="346" width="15" height="20" fill="white"/>
<rect x="213" y="346" width="15" height="20" fill="white"/>
<rect x="187" y="346" width="15" height="20" fill="white"/>
<rect x="240" y="10" width="10" height="380" fill="#8D8D8D"/>
<rect x="42" y="110" width="110" height="280" fill="#464863"/>
<path d="M97.5 61.5L152 110H42L97.5 61.5Z" fill="#464863"/>
<rect x="50" y="123" width="15" height="20" fill="white"/>
<rect x="130" y="123" width="15" height="20" fill="white"/>
<rect x="103" y="123" width="15" height="20" fill="white"/>
<rect x="77" y="123" width="15" height="20" fill="white"/>
<rect x="50" y="157" width="15" height="20" fill="white"/>
<rect x="130" y="157" width="15" height="20" fill="white"/>
<rect x="103" y="157" width="15" height="20" fill="white"/>
<rect x="77" y="157" width="15" height="20" fill="white"/>
<rect x="50" y="191" width="15" height="20" fill="white"/>
<rect x="130" y="191" width="15" height="20" fill="white"/>
<rect x="103" y="191" width="15" height="20" fill="white"/>
<rect x="77" y="191" width="15" height="20" fill="white"/>
<rect x="50" y="225" width="15" height="20" fill="white"/>
<rect x="130" y="225" width="15" height="20" fill="white"/>
<rect x="103" y="225" width="15" height="20" fill="white"/>
<rect x="77" y="225" width="15" height="20" fill="white"/>
<rect x="50" y="259" width="15" height="20" fill="white"/>
<rect x="130" y="259" width="15" height="20" fill="white"/>
<rect x="103" y="259" width="15" height="20" fill="white"/>
<rect x="77" y="259" width="15" height="20" fill="white"/>
<rect x="50" y="293" width="15" height="20" fill="white"/>
<rect x="130" y="293" width="15" height="20" fill="white"/>
<rect x="103" y="293" width="15" height="20" fill="white"/>
<rect x="77" y="293" width="15" height="20" fill="white"/>
<rect x="50" y="327" width="15" height="20" fill="white"/>
<rect x="130" y="327" width="15" height="20" fill="white"/>
<rect x="103" y="327" width="15" height="20" fill="white"/>
<rect x="77" y="327" width="15" height="20" fill="white"/>
<rect x="379" y="130" width="111" height="260" fill="#464863"/>
<path d="M490 55V130H379L490 55Z" fill="#464863"/>
<rect x="10" y="288" width="32" height="102" fill="#464863"/>
<rect x="399" y="137" width="30" height="20" fill="white"/>
<rect x="441" y="137" width="30" height="20" fill="white"/>
<rect x="399" y="293" width="30" height="20" fill="white"/>
<rect x="441" y="293" width="30" height="20" fill="white"/>
<rect x="399" y="254" width="30" height="20" fill="white"/>
<rect x="441" y="254" width="30" height="20" fill="white"/>
<rect x="399" y="215" width="30" height="20" fill="white"/>
<rect x="441" y="215" width="30" height="20" fill="white"/>
<rect x="399" y="176" width="30" height="20" fill="white"/>
<rect x="441" y="176" width="30" height="20" fill="white"/>
<defs>
<linearGradient id="paint0_linear" x1="250" y1="10" x2="250" y2="290" gradientUnits="userSpaceOnUse">
<stop stop-color="#1B3853"/>
<stop offset="1" stop-color="#C4C4C4" stop-opacity="0"/>
</linearGradient>
</defs>
</svg>
