<svg width="150" height="130" viewBox="0 0 150 130" fill="none" xmlns="http://www.w3.org/2000/svg">
<path d="M146 0H4C1.79086 0 0 1.79086 0 4V126C0 128.209 1.79086 130 4 130H146C148.209 130 150 128.209 150 126V4C150 1.79086 148.209 0 146 0Z" fill="white"/>
<path d="M139 13H11C8.79086 13 7 14.7909 7 17V53C7 55.2091 8.79086 57 11 57H139C141.209 57 143 55.2091 143 53V17C143 14.7909 141.209 13 139 13Z" fill="#E6EBF1"/>
<path d="M34 65H12C9.79086 65 8 66.7909 8 69V91C8 93.2091 9.79086 95 12 95H34C36.2091 95 38 93.2091 38 91V69C38 66.7909 36.2091 65 34 65Z" fill="#E6EBF1"/>
<path d="M69 65H47C44.7909 65 43 66.7909 43 69V91C43 93.2091 44.7909 95 47 95H69C71.2091 95 73 93.2091 73 91V69C73 66.7909 71.2091 65 69 65Z" fill="#E6EBF1"/>
<path d="M139 65H117C114.791 65 113 66.7909 113 69V91C113 93.2091 114.791 95 117 95H139C141.209 95 143 93.2091 143 91V69C143 66.7909 141.209 65 139 65Z" fill="#E6EBF1"/>
<path d="M104 65H82C79.7909 65 78 66.7909 78 69V91C78 93.2091 79.7909 95 82 95H104C106.209 95 108 93.2091 108 91V69C108 66.7909 106.209 65 104 65Z" fill="#E6EBF1"/>
</svg>
