<svg width="210" height="181" viewBox="0 0 210 181" fill="none" xmlns="http://www.w3.org/2000/svg">
<path d="M5 5C5 2.23857 7.23858 0 10 0H200C202.761 0 205 2.23858 205 5V133H5V5Z" fill="#484848"/>
<g filter="url(#filter0_d)">
<path d="M5 133H205V153C205 155.761 202.761 158 200 158H10C7.23857 158 5 155.761 5 153V133Z" fill="#DEDEDE"/>
</g>
<circle cx="105.5" cy="145.5" r="7.5" fill="#484848"/>
<rect x="15" y="11" width="180" height="110" rx="5" fill="#F5F5F5"/>
<path d="M88 158H122.5L130 178H80L88 158Z" fill="#DEDEDE"/>
<path d="M77 181C77 178.239 79.2386 176 82 176H129C131.761 176 134 178.239 134 181V181H77V181Z" fill="#C4C4C4"/>
<defs>
<filter id="filter0_d" x="0" y="130" width="210" height="35" filterUnits="userSpaceOnUse" color-interpolation-filters="sRGB">
<feFlood flood-opacity="0" result="BackgroundImageFix"/>
<feColorMatrix in="SourceAlpha" type="matrix" values="0 0 0 0 0 0 0 0 0 0 0 0 0 0 0 0 0 0 127 0"/>
<feOffset dy="2"/>
<feGaussianBlur stdDeviation="2.5"/>
<feColorMatrix type="matrix" values="0 0 0 0 0 0 0 0 0 0 0 0 0 0 0 0 0 0 0.1 0"/>
<feBlend mode="normal" in2="BackgroundImageFix" result="effect1_dropShadow"/>
<feBlend mode="normal" in="SourceGraphic" in2="effect1_dropShadow" result="shape"/>
</filter>
</defs>
</svg>
