<svg width="320" height="600" viewBox="0 0 320 600" fill="none" xmlns="http://www.w3.org/2000/svg">
<rect y="97" width="320" height="48" fill="white"/>
<rect y="49" width="320" height="551" fill="white"/>
<rect y="49" width="320" height="48" fill="white"/>
<rect x="16" y="96" width="288" height="1" fill="#DCDCDC"/>
<path d="M24.272 79H25.824V67.832H24.512V77.128H24.464L23.12 74.648L19.04 67.832H17.488V79H18.8V69.704H18.848L20.192 72.184L24.272 79ZM31.7765 79.192C33.3285 79.192 34.5125 78.424 35.0405 77.304L34.1285 76.648C33.6965 77.56 32.8965 78.072 31.8565 78.072C30.3205 78.072 29.4085 77 29.4085 75.576V75.192H35.3445V74.584C35.3445 72.248 33.9845 70.552 31.7765 70.552C29.5365 70.552 28.0645 72.248 28.0645 74.872C28.0645 77.496 29.5365 79.192 31.7765 79.192ZM31.7765 71.624C33.0885 71.624 33.9685 72.6 33.9685 74.056V74.232H29.4085V74.12C29.4085 72.68 30.3845 71.624 31.7765 71.624ZM40.8778 79V77.88H39.1978V71.864H41.0058V70.744H39.1978V68.456H38.0458V69.992C38.0458 70.552 37.8698 70.744 37.3258 70.744H36.5578V71.864H37.9178V77.64C37.9178 78.44 38.3978 79 39.2778 79H40.8778ZM44.4071 79H45.9591L47.1111 75.032L47.8151 72.52H47.8471L48.5671 75.032L49.7191 79H51.3031L53.4951 70.744H52.2951L51.3991 74.312L50.5511 77.928H50.5191L49.4951 74.312L48.4231 70.744H47.2871L46.2471 74.312L45.2391 77.928H45.2071L44.3271 74.312L43.4471 70.744H42.1991L44.4071 79ZM58.3863 79.192C60.5943 79.192 62.1143 77.496 62.1143 74.872C62.1143 72.248 60.5943 70.552 58.3863 70.552C56.1783 70.552 54.6583 72.248 54.6583 74.872C54.6583 77.496 56.1783 79.192 58.3863 79.192ZM58.3863 78.056C57.0103 78.056 56.0343 77.208 56.0343 75.464V74.28C56.0343 72.536 57.0103 71.688 58.3863 71.688C59.7623 71.688 60.7383 72.536 60.7383 74.28V75.464C60.7383 77.208 59.7623 78.056 58.3863 78.056ZM65.4994 79V73.4C65.4994 72.616 66.3314 72.024 67.7074 72.024H68.4594V70.744H67.9634C66.6194 70.744 65.8674 71.48 65.5794 72.264H65.4994V70.744H64.2194V79H65.4994ZM70.0944 79H71.3744V76.056L72.6064 74.792L75.3424 79H76.8944L73.5344 74.008L76.5904 70.744H75.0384L72.7024 73.256L71.4384 74.664H71.3744V67.16H70.0944V79Z" fill="#171717"/>
<path d="M24.864 118.704V116.832H16.416V118.704H19.584V128H21.696V118.704H24.864ZM28.7944 128.192C30.3464 128.192 31.5624 127.6 32.2504 126.656L31.1464 125.424C30.6344 126.08 30.0264 126.56 29.0184 126.56C27.6744 126.56 26.9864 125.744 26.9864 124.544V124.336H32.5384V123.664C32.5384 121.376 31.3384 119.456 28.7304 119.456C26.2824 119.456 24.8584 121.168 24.8584 123.808C24.8584 126.48 26.3304 128.192 28.7944 128.192ZM28.7624 120.992C29.8184 120.992 30.4104 121.776 30.4104 122.928V123.072H26.9864V122.944C26.9864 121.792 27.6904 120.992 28.7624 120.992ZM37.6363 128.192C39.2523 128.192 40.4203 127.456 40.9643 125.984L39.3963 125.232C39.0923 125.984 38.6123 126.544 37.6363 126.544C36.5003 126.544 35.9243 125.76 35.9243 124.592V123.072C35.9243 121.904 36.5003 121.104 37.6363 121.104C38.5163 121.104 39.0443 121.616 39.2363 122.32L40.9163 121.568C40.4203 120.256 39.3163 119.456 37.6363 119.456C35.1723 119.456 33.7803 121.136 33.7803 123.808C33.7803 126.496 35.1723 128.192 37.6363 128.192ZM42.5434 128H44.5914V122.48C44.5914 121.584 45.4074 121.136 46.2554 121.136C47.2314 121.136 47.6314 121.744 47.6314 122.928V128H49.6794V122.72C49.6794 120.64 48.7194 119.456 47.0074 119.456C45.7114 119.456 45.0074 120.144 44.6714 121.04H44.5914V116.16H42.5434V128ZM53.9976 128V122.48C53.9976 121.584 54.8136 121.136 55.6616 121.136C56.6376 121.136 57.0376 121.744 57.0376 122.928V128H59.0856V122.72C59.0856 120.64 58.1256 119.456 56.4136 119.456C55.1176 119.456 54.4136 120.144 54.0776 121.04H53.9976V119.648H51.9496V128H53.9976ZM64.6679 128.192C67.0679 128.192 68.5559 126.496 68.5559 123.808C68.5559 121.136 67.0679 119.456 64.6679 119.456C62.2839 119.456 60.7959 121.136 60.7959 123.808C60.7959 126.496 62.2839 128.192 64.6679 128.192ZM64.6679 126.544C63.6119 126.544 62.9399 125.856 62.9399 124.592V123.04C62.9399 121.792 63.6119 121.104 64.6679 121.104C65.7399 121.104 66.4119 121.792 66.4119 123.04V124.592C66.4119 125.856 65.7399 126.544 64.6679 126.544ZM73.5235 128V126.368H72.4195V116.16H70.3715V125.984C70.3715 127.264 71.0275 128 72.4195 128H73.5235ZM78.3866 128.192C80.7866 128.192 82.2746 126.496 82.2746 123.808C82.2746 121.136 80.7866 119.456 78.3866 119.456C76.0026 119.456 74.5146 121.136 74.5146 123.808C74.5146 126.496 76.0026 128.192 78.3866 128.192ZM78.3866 126.544C77.3306 126.544 76.6586 125.856 76.6586 124.592V123.04C76.6586 121.792 77.3306 121.104 78.3866 121.104C79.4586 121.104 80.1306 121.792 80.1306 123.04V124.592C80.1306 125.856 79.4586 126.544 78.3866 126.544ZM91.6263 128.704C91.6263 127.2 90.7463 126.32 88.6983 126.32H86.4583C85.7223 126.32 85.3703 126.112 85.3703 125.696C85.3703 125.328 85.6423 125.088 85.9623 124.944C86.3303 125.04 86.7623 125.088 87.2423 125.088C89.5143 125.088 90.6983 123.968 90.6983 122.288C90.6983 121.264 90.2663 120.448 89.4023 119.968V119.744H91.1783V118.176H89.8823C89.1143 118.176 88.6983 118.576 88.6983 119.392V119.664C88.2823 119.52 87.7543 119.456 87.2423 119.456C84.9863 119.456 83.7863 120.592 83.7863 122.288C83.7863 123.392 84.2983 124.256 85.3063 124.72V124.784C84.5063 124.96 83.7703 125.392 83.7703 126.256C83.7703 126.928 84.1543 127.472 84.8423 127.648V127.824C83.9143 127.968 83.3543 128.496 83.3543 129.424C83.3543 130.656 84.4263 131.392 87.2423 131.392C90.4423 131.392 91.6263 130.448 91.6263 128.704ZM89.7063 128.944C89.7063 129.648 89.1143 129.984 87.7863 129.984H86.7623C85.4823 129.984 85.0023 129.6 85.0023 128.96C85.0023 128.624 85.1303 128.32 85.4343 128.096H88.2823C89.3223 128.096 89.7063 128.416 89.7063 128.944ZM87.2423 123.696C86.2663 123.696 85.7383 123.248 85.7383 122.416V122.144C85.7383 121.296 86.2663 120.864 87.2423 120.864C88.2183 120.864 88.7463 121.296 88.7463 122.144V122.416C88.7463 123.248 88.2183 123.696 87.2423 123.696ZM96.5511 124.064L95.9751 126.176H95.8791L95.3351 124.064L93.8791 119.648H91.8471L94.8391 128.4L94.4551 129.568H92.9511V131.2H94.1831C95.5591 131.2 96.1511 130.688 96.5671 129.488L99.9271 119.648H98.0071L96.5511 124.064Z" fill="#171717"/>
<rect y="552" width="320" height="48" fill="white"/>
<rect y="552" width="320" height="0.5" fill="#D8DCE3"/>
<path d="M18 572.808C17.7227 572.808 17.52 572.744 17.392 572.616C17.2747 572.477 17.216 572.301 17.216 572.088V571.88C17.216 571.667 17.2747 571.496 17.392 571.368C17.52 571.229 17.7227 571.16 18 571.16C18.2773 571.16 18.4747 571.229 18.592 571.368C18.72 571.496 18.784 571.667 18.784 571.88V572.088C18.784 572.301 18.72 572.477 18.592 572.616C18.4747 572.744 18.2773 572.808 18 572.808ZM17.36 574.744H18.64V583H17.36V574.744ZM21.36 571.16H22.64V576.088H22.704C22.9173 575.565 23.2267 575.181 23.632 574.936C24.048 574.68 24.544 574.552 25.12 574.552C25.632 574.552 26.096 574.653 26.512 574.856C26.928 575.059 27.28 575.347 27.568 575.72C27.8667 576.093 28.0907 576.547 28.24 577.08C28.4 577.613 28.48 578.211 28.48 578.872C28.48 579.533 28.4 580.131 28.24 580.664C28.0907 581.197 27.8667 581.651 27.568 582.024C27.28 582.397 26.928 582.685 26.512 582.888C26.096 583.091 25.632 583.192 25.12 583.192C24 583.192 23.1947 582.68 22.704 581.656H22.64V583H21.36V571.16ZM24.768 582.04C25.4933 582.04 26.064 581.816 26.48 581.368C26.896 580.909 27.104 580.312 27.104 579.576V578.168C27.104 577.432 26.896 576.84 26.48 576.392C26.064 575.933 25.4933 575.704 24.768 575.704C24.48 575.704 24.2027 575.747 23.936 575.832C23.68 575.907 23.456 576.013 23.264 576.152C23.072 576.291 22.9173 576.461 22.8 576.664C22.6933 576.856 22.64 577.064 22.64 577.288V580.36C22.64 580.627 22.6933 580.867 22.8 581.08C22.9173 581.283 23.072 581.459 23.264 581.608C23.456 581.747 23.68 581.853 23.936 581.928C24.2027 582.003 24.48 582.04 24.768 582.04ZM30.6413 583V574.744H31.9213V576.088H31.9853C32.0813 575.875 32.1879 575.677 32.3053 575.496C32.4333 575.304 32.5826 575.139 32.7533 575C32.9346 574.861 33.1426 574.755 33.3773 574.68C33.6119 574.595 33.8893 574.552 34.2093 574.552C34.7533 574.552 35.2546 574.685 35.7133 574.952C36.1719 575.208 36.5133 575.635 36.7373 576.232H36.7693C36.9186 575.784 37.1959 575.395 37.6013 575.064C38.0173 574.723 38.5773 574.552 39.2812 574.552C40.1239 574.552 40.7799 574.829 41.2493 575.384C41.7293 575.928 41.9693 576.701 41.9693 577.704V583H40.6893V577.928C40.6893 577.192 40.5453 576.637 40.2573 576.264C39.9693 575.891 39.5106 575.704 38.8813 575.704C38.6253 575.704 38.3799 575.736 38.1453 575.8C37.9213 575.864 37.7186 575.96 37.5373 576.088C37.3559 576.216 37.2119 576.381 37.1053 576.584C36.9986 576.776 36.9453 577.005 36.9453 577.272V583H35.6653V577.928C35.6653 577.192 35.5213 576.637 35.2333 576.264C34.9453 575.891 34.4973 575.704 33.8893 575.704C33.6333 575.704 33.3879 575.736 33.1533 575.8C32.9186 575.864 32.7106 575.96 32.5293 576.088C32.3479 576.216 32.1986 576.381 32.0813 576.584C31.9746 576.776 31.9213 577.005 31.9213 577.272V583H30.6413ZM45.426 583.192C45.0847 583.192 44.834 583.107 44.674 582.936C44.5247 582.765 44.45 582.541 44.45 582.264V582.056C44.45 581.779 44.5247 581.555 44.674 581.384C44.834 581.213 45.0847 581.128 45.426 581.128C45.7673 581.128 46.0127 581.213 46.162 581.384C46.322 581.555 46.402 581.779 46.402 582.056V582.264C46.402 582.541 46.322 582.765 46.162 582.936C46.0127 583.107 45.7673 583.192 45.426 583.192ZM51.8851 583.192C51.3091 583.192 50.7918 583.091 50.3331 582.888C49.8745 582.685 49.4851 582.397 49.1651 582.024C48.8558 581.651 48.6158 581.197 48.4451 580.664C48.2851 580.131 48.2051 579.533 48.2051 578.872C48.2051 578.211 48.2851 577.613 48.4451 577.08C48.6158 576.547 48.8558 576.093 49.1651 575.72C49.4851 575.347 49.8745 575.059 50.3331 574.856C50.7918 574.653 51.3091 574.552 51.8851 574.552C52.7065 574.552 53.3625 574.733 53.8531 575.096C54.3545 575.448 54.7278 575.912 54.9731 576.488L53.9011 577.032C53.7518 576.605 53.5065 576.275 53.1651 576.04C52.8238 575.805 52.3971 575.688 51.8851 575.688C51.5011 575.688 51.1651 575.752 50.8771 575.88C50.5891 575.997 50.3491 576.168 50.1571 576.392C49.9651 576.605 49.8211 576.867 49.7251 577.176C49.6291 577.475 49.5811 577.805 49.5811 578.168V579.576C49.5811 580.301 49.7731 580.899 50.1571 581.368C50.5518 581.827 51.1278 582.056 51.8851 582.056C52.9198 582.056 53.6665 581.576 54.1251 580.616L55.0531 581.24C54.7865 581.837 54.3865 582.312 53.8531 582.664C53.3305 583.016 52.6745 583.192 51.8851 583.192ZM59.8863 583.192C59.3316 583.192 58.8249 583.091 58.3663 582.888C57.9076 582.685 57.5129 582.397 57.1823 582.024C56.8623 581.64 56.6116 581.187 56.4303 580.664C56.2489 580.131 56.1583 579.533 56.1583 578.872C56.1583 578.221 56.2489 577.629 56.4303 577.096C56.6116 576.563 56.8623 576.109 57.1823 575.736C57.5129 575.352 57.9076 575.059 58.3663 574.856C58.8249 574.653 59.3316 574.552 59.8863 574.552C60.4409 574.552 60.9423 574.653 61.3903 574.856C61.8489 575.059 62.2436 575.352 62.5743 575.736C62.9049 576.109 63.1609 576.563 63.3423 577.096C63.5236 577.629 63.6143 578.221 63.6143 578.872C63.6143 579.533 63.5236 580.131 63.3423 580.664C63.1609 581.187 62.9049 581.64 62.5743 582.024C62.2436 582.397 61.8489 582.685 61.3903 582.888C60.9423 583.091 60.4409 583.192 59.8863 583.192ZM59.8863 582.056C60.5796 582.056 61.1449 581.843 61.5823 581.416C62.0196 580.989 62.2383 580.339 62.2383 579.464V578.28C62.2383 577.405 62.0196 576.755 61.5823 576.328C61.1449 575.901 60.5796 575.688 59.8863 575.688C59.1929 575.688 58.6276 575.901 58.1903 576.328C57.7529 576.755 57.5343 577.405 57.5343 578.28V579.464C57.5343 580.339 57.7529 580.989 58.1903 581.416C58.6276 581.843 59.1929 582.056 59.8863 582.056ZM65.7194 583V574.744H66.9994V576.088H67.0634C67.1594 575.875 67.266 575.677 67.3834 575.496C67.5114 575.304 67.6607 575.139 67.8314 575C68.0127 574.861 68.2207 574.755 68.4554 574.68C68.69 574.595 68.9674 574.552 69.2874 574.552C69.8314 574.552 70.3327 574.685 70.7914 574.952C71.25 575.208 71.5914 575.635 71.8154 576.232H71.8474C71.9967 575.784 72.274 575.395 72.6794 575.064C73.0954 574.723 73.6554 574.552 74.3594 574.552C75.202 574.552 75.858 574.829 76.3274 575.384C76.8074 575.928 77.0474 576.701 77.0474 577.704V583H75.7674V577.928C75.7674 577.192 75.6234 576.637 75.3354 576.264C75.0474 575.891 74.5887 575.704 73.9594 575.704C73.7034 575.704 73.458 575.736 73.2234 575.8C72.9994 575.864 72.7967 575.96 72.6154 576.088C72.434 576.216 72.29 576.381 72.1834 576.584C72.0767 576.776 72.0234 577.005 72.0234 577.272V583H70.7434V577.928C70.7434 577.192 70.5994 576.637 70.3114 576.264C70.0234 575.891 69.5754 575.704 68.9674 575.704C68.7114 575.704 68.466 575.736 68.2314 575.8C67.9967 575.864 67.7887 575.96 67.6074 576.088C67.426 576.216 67.2767 576.381 67.1594 576.584C67.0527 576.776 66.9994 577.005 66.9994 577.272V583H65.7194Z" fill="#3D3D3D"/>
<rect y="599.5" width="320" height="0.5" fill="#D8DCE3"/>
<path d="M294.375 569.375C294.125 569.188 293.813 569.188 293.625 569.375L284.625 576.375L285.375 577.375L286.5 576.5V584.25C286.5 584.937 287.062 585.5 287.75 585.5H300.25C300.938 585.5 301.5 584.937 301.5 584.25V576.5L302.625 577.375L303.375 576.375L294.375 569.375ZM295.25 584.25H292.75V579.25H295.25V584.25ZM296.5 584.25V579.25C296.5 578.562 295.938 578 295.25 578H292.75C292.062 578 291.5 578.562 291.5 579.25V584.25H287.75V575.562L294 570.687L300.25 575.562V584.25H296.5Z" fill="black"/>
<path d="M297.75 73L291.5 79.25L290.625 78.375L296 73L290.625 67.625L291.5 66.75L297.75 73Z" fill="black"/>
<rect y="145" width="320" height="48" fill="white"/>
<rect x="16" y="144" width="289" height="1" fill="#D8DCE3"/>
<rect x="16" y="192" width="288" height="1" fill="#DCDCDC"/>
<path d="M18.832 175H17.488V163.832H21.936C22.9173 163.832 23.68 164.104 24.224 164.648C24.7787 165.192 25.056 165.976 25.056 167C25.056 167.821 24.864 168.499 24.48 169.032C24.1067 169.555 23.552 169.901 22.816 170.072L25.376 175H23.856L21.44 170.2H18.832V175ZM21.936 169.048C22.4693 169.048 22.88 168.909 23.168 168.632C23.4667 168.355 23.616 167.96 23.616 167.448V166.616C23.616 166.104 23.4667 165.709 23.168 165.432C22.88 165.155 22.4693 165.016 21.936 165.016H18.832V169.048H21.936ZM30.464 175.192C29.8987 175.192 29.3867 175.091 28.928 174.888C28.48 174.685 28.0907 174.397 27.76 174.024C27.44 173.64 27.1893 173.187 27.008 172.664C26.8373 172.131 26.752 171.533 26.752 170.872C26.752 170.221 26.8373 169.629 27.008 169.096C27.1893 168.563 27.44 168.109 27.76 167.736C28.0907 167.352 28.48 167.059 28.928 166.856C29.3867 166.653 29.8987 166.552 30.464 166.552C31.0187 166.552 31.5147 166.653 31.952 166.856C32.3893 167.059 32.7627 167.341 33.072 167.704C33.3813 168.056 33.616 168.477 33.776 168.968C33.9467 169.459 34.032 169.997 34.032 170.584V171.192H28.096V171.576C28.096 171.928 28.1493 172.259 28.256 172.568C28.3733 172.867 28.5333 173.128 28.736 173.352C28.9493 173.576 29.2053 173.752 29.504 173.88C29.8133 174.008 30.16 174.072 30.544 174.072C31.0667 174.072 31.52 173.949 31.904 173.704C32.2987 173.459 32.6027 173.107 32.816 172.648L33.728 173.304C33.4613 173.869 33.0453 174.328 32.48 174.68C31.9147 175.021 31.2427 175.192 30.464 175.192ZM30.464 167.624C30.112 167.624 29.792 167.688 29.504 167.816C29.216 167.933 28.9653 168.104 28.752 168.328C28.5493 168.552 28.3893 168.819 28.272 169.128C28.1547 169.427 28.096 169.757 28.096 170.12V170.232H32.656V170.056C32.656 169.32 32.4533 168.733 32.048 168.296C31.6533 167.848 31.1253 167.624 30.464 167.624ZM38.6213 175.192C37.8533 175.192 37.2079 175.048 36.6853 174.76C36.1733 174.461 35.7306 174.067 35.3573 173.576L36.2693 172.84C36.5893 173.245 36.9466 173.56 37.3413 173.784C37.7359 173.997 38.1946 174.104 38.7173 174.104C39.2613 174.104 39.6826 173.987 39.9813 173.752C40.2906 173.517 40.4453 173.187 40.4453 172.76C40.4453 172.44 40.3386 172.168 40.1253 171.944C39.9226 171.709 39.5493 171.549 39.0052 171.464L38.3493 171.368C37.9653 171.315 37.6133 171.235 37.2933 171.128C36.9733 171.011 36.6906 170.861 36.4453 170.68C36.2106 170.488 36.0239 170.253 35.8853 169.976C35.7573 169.699 35.6933 169.368 35.6933 168.984C35.6933 168.579 35.7679 168.227 35.9173 167.928C36.0666 167.619 36.2693 167.363 36.5253 167.16C36.7919 166.957 37.1066 166.808 37.4693 166.712C37.8319 166.605 38.2213 166.552 38.6373 166.552C39.3093 166.552 39.8693 166.669 40.3173 166.904C40.7759 167.139 41.1759 167.464 41.5173 167.88L40.6693 168.648C40.4879 168.392 40.2213 168.163 39.8693 167.96C39.5173 167.747 39.0746 167.64 38.5413 167.64C38.0079 167.64 37.6026 167.757 37.3253 167.992C37.0586 168.216 36.9253 168.525 36.9253 168.92C36.9253 169.325 37.0586 169.619 37.3253 169.8C37.6026 169.981 37.9973 170.115 38.5093 170.2L39.1493 170.296C40.0666 170.435 40.7173 170.701 41.1013 171.096C41.4853 171.48 41.6773 171.987 41.6773 172.616C41.6773 173.416 41.4053 174.045 40.8613 174.504C40.3173 174.963 39.5706 175.192 38.6213 175.192ZM47.0581 175.192C46.5035 175.192 45.9968 175.091 45.5381 174.888C45.0795 174.685 44.6848 174.397 44.3541 174.024C44.0341 173.64 43.7835 173.187 43.6021 172.664C43.4208 172.131 43.3301 171.533 43.3301 170.872C43.3301 170.221 43.4208 169.629 43.6021 169.096C43.7835 168.563 44.0341 168.109 44.3541 167.736C44.6848 167.352 45.0795 167.059 45.5381 166.856C45.9968 166.653 46.5035 166.552 47.0581 166.552C47.6128 166.552 48.1141 166.653 48.5621 166.856C49.0208 167.059 49.4155 167.352 49.7461 167.736C50.0768 168.109 50.3328 168.563 50.5141 169.096C50.6955 169.629 50.7861 170.221 50.7861 170.872C50.7861 171.533 50.6955 172.131 50.5141 172.664C50.3328 173.187 50.0768 173.64 49.7461 174.024C49.4155 174.397 49.0208 174.685 48.5621 174.888C48.1141 175.091 47.6128 175.192 47.0581 175.192ZM47.0581 174.056C47.7515 174.056 48.3168 173.843 48.7541 173.416C49.1915 172.989 49.4101 172.339 49.4101 171.464V170.28C49.4101 169.405 49.1915 168.755 48.7541 168.328C48.3168 167.901 47.7515 167.688 47.0581 167.688C46.3648 167.688 45.7995 167.901 45.3621 168.328C44.9248 168.755 44.7061 169.405 44.7061 170.28V171.464C44.7061 172.339 44.9248 172.989 45.3621 173.416C45.7995 173.843 46.3648 174.056 47.0581 174.056ZM57.9793 173.656H57.9153C57.8299 173.848 57.7233 174.04 57.5953 174.232C57.4779 174.413 57.3286 174.579 57.1473 174.728C56.9659 174.867 56.7473 174.979 56.4913 175.064C56.2353 175.149 55.9366 175.192 55.5953 175.192C54.7419 175.192 54.0646 174.92 53.5633 174.376C53.0619 173.821 52.8113 173.043 52.8113 172.04V166.744H54.0913V171.816C54.0913 173.299 54.7206 174.04 55.9793 174.04C56.2353 174.04 56.4806 174.008 56.7153 173.944C56.9606 173.88 57.1739 173.784 57.3553 173.656C57.5473 173.528 57.6966 173.368 57.8033 173.176C57.9206 172.973 57.9793 172.733 57.9793 172.456V166.744H59.2593V175H57.9793V173.656ZM61.985 175V166.744H63.265V168.264H63.345C63.4943 167.869 63.761 167.517 64.145 167.208C64.529 166.899 65.057 166.744 65.729 166.744H66.225V168.024H65.473C64.7797 168.024 64.2357 168.157 63.841 168.424C63.457 168.68 63.265 169.005 63.265 169.4V175H61.985ZM70.8539 175.192C70.2779 175.192 69.7605 175.091 69.3019 174.888C68.8432 174.685 68.4539 174.397 68.1339 174.024C67.8245 173.651 67.5845 173.197 67.4139 172.664C67.2539 172.131 67.1739 171.533 67.1739 170.872C67.1739 170.211 67.2539 169.613 67.4139 169.08C67.5845 168.547 67.8245 168.093 68.1339 167.72C68.4539 167.347 68.8432 167.059 69.3019 166.856C69.7605 166.653 70.2779 166.552 70.8539 166.552C71.6752 166.552 72.3312 166.733 72.8219 167.096C73.3232 167.448 73.6965 167.912 73.9419 168.488L72.8699 169.032C72.7205 168.605 72.4752 168.275 72.1339 168.04C71.7925 167.805 71.3659 167.688 70.8539 167.688C70.4699 167.688 70.1339 167.752 69.8459 167.88C69.5579 167.997 69.3179 168.168 69.1259 168.392C68.9339 168.605 68.7899 168.867 68.6939 169.176C68.5979 169.475 68.5499 169.805 68.5499 170.168V171.576C68.5499 172.301 68.7419 172.899 69.1259 173.368C69.5205 173.827 70.0965 174.056 70.8539 174.056C71.8885 174.056 72.6352 173.576 73.0939 172.616L74.0219 173.24C73.7552 173.837 73.3552 174.312 72.8219 174.664C72.2992 175.016 71.6432 175.192 70.8539 175.192ZM78.839 175.192C78.2737 175.192 77.7617 175.091 77.303 174.888C76.855 174.685 76.4657 174.397 76.135 174.024C75.815 173.64 75.5643 173.187 75.383 172.664C75.2123 172.131 75.127 171.533 75.127 170.872C75.127 170.221 75.2123 169.629 75.383 169.096C75.5643 168.563 75.815 168.109 76.135 167.736C76.4657 167.352 76.855 167.059 77.303 166.856C77.7617 166.653 78.2737 166.552 78.839 166.552C79.3937 166.552 79.8897 166.653 80.327 166.856C80.7643 167.059 81.1377 167.341 81.447 167.704C81.7563 168.056 81.991 168.477 82.151 168.968C82.3217 169.459 82.407 169.997 82.407 170.584V171.192H76.471V171.576C76.471 171.928 76.5243 172.259 76.631 172.568C76.7483 172.867 76.9083 173.128 77.111 173.352C77.3243 173.576 77.5803 173.752 77.879 173.88C78.1883 174.008 78.535 174.072 78.919 174.072C79.4417 174.072 79.895 173.949 80.279 173.704C80.6737 173.459 80.9777 173.107 81.191 172.648L82.103 173.304C81.8363 173.869 81.4203 174.328 80.855 174.68C80.2897 175.021 79.6177 175.192 78.839 175.192ZM78.839 167.624C78.487 167.624 78.167 167.688 77.879 167.816C77.591 167.933 77.3403 168.104 77.127 168.328C76.9243 168.552 76.7643 168.819 76.647 169.128C76.5297 169.427 76.471 169.757 76.471 170.12V170.232H81.031V170.056C81.031 169.32 80.8283 168.733 80.423 168.296C80.0283 167.848 79.5003 167.624 78.839 167.624ZM86.9963 175.192C86.2283 175.192 85.5829 175.048 85.0603 174.76C84.5483 174.461 84.1056 174.067 83.7323 173.576L84.6443 172.84C84.9643 173.245 85.3216 173.56 85.7163 173.784C86.1109 173.997 86.5696 174.104 87.0923 174.104C87.6363 174.104 88.0576 173.987 88.3563 173.752C88.6656 173.517 88.8203 173.187 88.8203 172.76C88.8203 172.44 88.7136 172.168 88.5003 171.944C88.2976 171.709 87.9243 171.549 87.3802 171.464L86.7243 171.368C86.3403 171.315 85.9883 171.235 85.6683 171.128C85.3483 171.011 85.0656 170.861 84.8203 170.68C84.5856 170.488 84.3989 170.253 84.2603 169.976C84.1323 169.699 84.0683 169.368 84.0683 168.984C84.0683 168.579 84.1429 168.227 84.2923 167.928C84.4416 167.619 84.6443 167.363 84.9003 167.16C85.1669 166.957 85.4816 166.808 85.8443 166.712C86.2069 166.605 86.5963 166.552 87.0123 166.552C87.6843 166.552 88.2443 166.669 88.6923 166.904C89.1509 167.139 89.5509 167.464 89.8923 167.88L89.0443 168.648C88.8629 168.392 88.5963 168.163 88.2443 167.96C87.8923 167.747 87.4496 167.64 86.9163 167.64C86.3829 167.64 85.9776 167.757 85.7003 167.992C85.4336 168.216 85.3003 168.525 85.3003 168.92C85.3003 169.325 85.4336 169.619 85.7003 169.8C85.9776 169.981 86.3723 170.115 86.8843 170.2L87.5243 170.296C88.4416 170.435 89.0923 170.701 89.4763 171.096C89.8603 171.48 90.0523 171.987 90.0523 172.616C90.0523 173.416 89.7803 174.045 89.2363 174.504C88.6923 174.963 87.9456 175.192 86.9963 175.192Z" fill="#171717"/>
<path d="M297.75 169L291.5 175.25L290.625 174.375L296 169L290.625 163.625L291.5 162.75L297.75 169Z" fill="black"/>
<path d="M297.75 121L291.5 127.25L290.625 126.375L296 121L290.625 115.625L291.5 114.75L297.75 121Z" fill="black"/>
<rect width="320" height="48" fill="#F3F3F3"/>
<rect y="48" width="320" height="1" fill="#DCDCDC"/>
<path d="M21.92 30V28.304H20.432V20.528H21.92V18.832H16.848V20.528H18.32V28.304H16.848V30H21.92ZM24.0776 30H29.7416C31.3896 30 32.6216 28.592 32.6216 26.8C32.6216 24.896 31.1816 24.208 30.2056 24.192V24.096C31.2296 24.032 32.2056 23.392 32.2056 21.696C32.2056 19.968 31.0856 18.832 29.2456 18.832H24.0776V30ZM26.1896 25.216H29.1336C29.9336 25.216 30.4136 25.664 30.4136 26.448V26.992C30.4136 27.776 29.9336 28.208 29.1336 28.208H26.1896V25.216ZM26.1896 20.624H28.7976C29.5656 20.624 30.0136 21.056 30.0136 21.808V22.304C30.0136 23.04 29.5656 23.488 28.7976 23.488H26.1896V20.624ZM34.687 30H36.687V21.984H36.751L37.615 23.76L39.903 27.984L42.191 23.76L43.055 21.984H43.119V30H45.119V18.832H42.831L39.999 24.288H39.935L37.071 18.832H34.687V30ZM58.7308 31.12H57.0188V30.08C59.3388 29.632 60.7788 27.696 60.7788 24.416C60.7788 20.64 58.8588 18.64 55.9148 18.64C52.9868 18.64 51.0508 20.64 51.0508 24.416C51.0508 27.792 52.6028 29.76 55.0348 30.128V30.8C55.0348 32.096 55.7068 32.848 57.1788 32.848H58.7308V31.12ZM55.9148 28.32C54.3148 28.32 53.2908 27.184 53.2908 25.28V23.552C53.2908 21.648 54.3148 20.512 55.9148 20.512C57.5148 20.512 58.5388 21.648 58.5388 23.552V25.28C58.5388 27.184 57.5148 28.32 55.9148 28.32Z" fill="black"/>
<path d="M298 19.05L296.95 18L292 22.95L287.05 18L286 19.05L290.95 24L286 28.95L287.05 30L292 25.05L296.95 30L298 28.95L293.05 24L298 19.05Z" fill="#252525"/>
<rect y="504" width="320" height="48" fill="#0062FF"/>
<path d="M17.488 534V522.832H18.832V532.816H23.584V534H17.488ZM31.36 534C30.88 534 30.5333 533.872 30.32 533.616C30.1173 533.36 29.9893 533.04 29.936 532.656H29.856C29.6747 533.168 29.376 533.552 28.96 533.808C28.544 534.064 28.048 534.192 27.472 534.192C26.5973 534.192 25.9147 533.968 25.424 533.52C24.944 533.072 24.704 532.464 24.704 531.696C24.704 530.917 24.9867 530.32 25.552 529.904C26.128 529.488 27.0187 529.28 28.224 529.28H29.856V528.464C29.856 527.877 29.696 527.429 29.376 527.12C29.056 526.811 28.5653 526.656 27.904 526.656C27.4027 526.656 26.9813 526.768 26.64 526.992C26.3093 527.216 26.032 527.515 25.808 527.888L25.04 527.168C25.264 526.72 25.6213 526.341 26.112 526.032C26.6027 525.712 27.2213 525.552 27.968 525.552C28.9707 525.552 29.7493 525.797 30.304 526.288C30.8587 526.779 31.136 527.461 31.136 528.336V532.88H32.08V534H31.36ZM27.68 533.104C28 533.104 28.2933 533.067 28.56 532.992C28.8267 532.917 29.056 532.811 29.248 532.672C29.44 532.533 29.5893 532.373 29.696 532.192C29.8027 532.011 29.856 531.813 29.856 531.6V530.24H28.16C27.424 530.24 26.8853 530.347 26.544 530.56C26.2133 530.773 26.048 531.083 26.048 531.488V531.824C26.048 532.229 26.192 532.544 26.48 532.768C26.7787 532.992 27.1787 533.104 27.68 533.104ZM38.9949 532.656H38.9309C38.8455 532.848 38.7389 533.04 38.6109 533.232C38.4935 533.413 38.3442 533.579 38.1629 533.728C37.9815 533.867 37.7629 533.979 37.5069 534.064C37.2509 534.149 36.9522 534.192 36.6109 534.192C35.7575 534.192 35.0802 533.92 34.5789 533.376C34.0775 532.821 33.8269 532.043 33.8269 531.04V525.744H35.1069V530.816C35.1069 532.299 35.7362 533.04 36.9949 533.04C37.2509 533.04 37.4962 533.008 37.7309 532.944C37.9762 532.88 38.1895 532.784 38.3709 532.656C38.5629 532.528 38.7122 532.368 38.8189 532.176C38.9362 531.973 38.9949 531.733 38.9949 531.456V525.744H40.2749V534H38.9949V532.656ZM43.0006 534V525.744H44.2806V527.088H44.3446C44.5473 526.619 44.83 526.245 45.1926 525.968C45.566 525.691 46.062 525.552 46.6806 525.552C47.534 525.552 48.206 525.829 48.6966 526.384C49.198 526.928 49.4486 527.701 49.4486 528.704V534H48.1686V528.928C48.1686 527.445 47.5446 526.704 46.2966 526.704C46.0406 526.704 45.79 526.736 45.5446 526.8C45.31 526.864 45.0966 526.96 44.9046 527.088C44.7126 527.216 44.558 527.381 44.4406 527.584C44.334 527.776 44.2806 528.005 44.2806 528.272V534H43.0006ZM55.1664 534.192C54.5904 534.192 54.073 534.091 53.6144 533.888C53.1557 533.685 52.7664 533.397 52.4464 533.024C52.137 532.651 51.897 532.197 51.7264 531.664C51.5664 531.131 51.4864 530.533 51.4864 529.872C51.4864 529.211 51.5664 528.613 51.7264 528.08C51.897 527.547 52.137 527.093 52.4464 526.72C52.7664 526.347 53.1557 526.059 53.6144 525.856C54.073 525.653 54.5904 525.552 55.1664 525.552C55.9877 525.552 56.6437 525.733 57.1344 526.096C57.6357 526.448 58.009 526.912 58.2544 527.488L57.1824 528.032C57.033 527.605 56.7877 527.275 56.4464 527.04C56.105 526.805 55.6784 526.688 55.1664 526.688C54.7824 526.688 54.4464 526.752 54.1584 526.88C53.8704 526.997 53.6304 527.168 53.4384 527.392C53.2464 527.605 53.1024 527.867 53.0064 528.176C52.9104 528.475 52.8624 528.805 52.8624 529.168V530.576C52.8624 531.301 53.0544 531.899 53.4384 532.368C53.833 532.827 54.409 533.056 55.1664 533.056C56.201 533.056 56.9477 532.576 57.4064 531.616L58.3344 532.24C58.0677 532.837 57.6677 533.312 57.1344 533.664C56.6117 534.016 55.9557 534.192 55.1664 534.192ZM60.1413 522.16H61.4213V527.088H61.4853C61.6879 526.619 61.9706 526.245 62.3333 525.968C62.7066 525.691 63.2026 525.552 63.8213 525.552C64.6746 525.552 65.3466 525.829 65.8373 526.384C66.3386 526.928 66.5893 527.701 66.5893 528.704V534H65.3093V528.928C65.3093 527.445 64.6853 526.704 63.4373 526.704C63.1813 526.704 62.9306 526.736 62.6853 526.8C62.4506 526.864 62.2373 526.96 62.0453 527.088C61.8533 527.216 61.6986 527.381 61.5813 527.584C61.4746 527.776 61.4213 528.005 61.4213 528.272V534H60.1413V522.16ZM72.6163 534V532.88H74.1843V523.952H72.6163V522.832H77.0963V523.952H75.5283V532.88H77.0963V534H72.6163ZM79.5505 522.832H84.1425C85.0705 522.832 85.7958 523.093 86.3185 523.616C86.8518 524.139 87.1185 524.837 87.1185 525.712C87.1185 526.128 87.0598 526.48 86.9425 526.768C86.8252 527.056 86.6758 527.296 86.4945 527.488C86.3132 527.669 86.1158 527.808 85.9025 527.904C85.6892 527.989 85.4918 528.048 85.3105 528.08V528.176C85.5132 528.187 85.7372 528.24 85.9825 528.336C86.2385 528.432 86.4785 528.587 86.7025 528.8C86.9265 529.003 87.1132 529.269 87.2625 529.6C87.4225 529.92 87.5025 530.309 87.5025 530.768C87.5025 531.227 87.4278 531.653 87.2785 532.048C87.1398 532.443 86.9425 532.784 86.6865 533.072C86.4305 533.36 86.1265 533.589 85.7745 533.76C85.4225 533.92 85.0385 534 84.6225 534H79.5505V522.832ZM80.8945 532.816H84.2065C84.7825 532.816 85.2358 532.672 85.5665 532.384C85.8972 532.085 86.0625 531.653 86.0625 531.088V530.544C86.0625 529.979 85.8972 529.552 85.5665 529.264C85.2358 528.965 84.7825 528.816 84.2065 528.816H80.8945V532.816ZM80.8945 527.664H83.9825C84.5158 527.664 84.9318 527.531 85.2305 527.264C85.5292 526.997 85.6785 526.613 85.6785 526.112V525.568C85.6785 525.067 85.5292 524.683 85.2305 524.416C84.9318 524.149 84.5158 524.016 83.9825 524.016H80.8945V527.664ZM98.7076 524.592H98.6276L97.6836 526.464L95.0116 531.328L92.3396 526.464L91.3956 524.592H91.3156V534H90.0036V522.832H91.7956L94.9956 528.848H95.0756L98.2916 522.832H100.02V534H98.7076V524.592ZM113.409 536.624H111.761C111.313 536.624 110.977 536.496 110.753 536.24C110.529 535.995 110.417 535.685 110.417 535.312V534.176C109.777 534.112 109.196 533.941 108.673 533.664C108.151 533.387 107.708 533.008 107.345 532.528C106.983 532.037 106.7 531.451 106.497 530.768C106.305 530.075 106.209 529.291 106.209 528.416C106.209 527.477 106.321 526.651 106.545 525.936C106.769 525.221 107.084 524.619 107.489 524.128C107.905 523.637 108.401 523.269 108.977 523.024C109.564 522.768 110.22 522.64 110.945 522.64C111.66 522.64 112.311 522.768 112.897 523.024C113.484 523.269 113.98 523.637 114.385 524.128C114.801 524.619 115.121 525.221 115.345 525.936C115.569 526.651 115.681 527.477 115.681 528.416C115.681 530.133 115.324 531.477 114.609 532.448C113.895 533.408 112.924 533.973 111.697 534.144V535.504H113.409V536.624ZM110.945 532.992C111.425 532.992 111.868 532.907 112.273 532.736C112.679 532.565 113.025 532.32 113.313 532C113.612 531.68 113.841 531.296 114.001 530.848C114.161 530.4 114.241 529.899 114.241 529.344V527.488C114.241 526.933 114.161 526.432 114.001 525.984C113.841 525.536 113.612 525.152 113.313 524.832C113.025 524.512 112.679 524.267 112.273 524.096C111.868 523.925 111.425 523.84 110.945 523.84C110.465 523.84 110.023 523.925 109.617 524.096C109.212 524.267 108.86 524.512 108.561 524.832C108.273 525.152 108.049 525.536 107.889 525.984C107.729 526.432 107.649 526.933 107.649 527.488V529.344C107.649 529.899 107.729 530.4 107.889 530.848C108.049 531.296 108.273 531.68 108.561 532C108.86 532.32 109.212 532.565 109.617 532.736C110.023 532.907 110.465 532.992 110.945 532.992ZM121.879 534V522.832H128.695V524.016H123.223V527.76H128.375V528.944H123.223V532.816H128.695V534H121.879ZM130.055 534L133.111 529.84L130.183 525.744H131.687L133.783 528.816H133.831L136.007 525.744H137.431L134.519 529.744L137.495 534H135.991L133.847 530.768H133.799L131.479 534H130.055ZM139.188 525.744H140.468V527.088H140.532C140.745 526.565 141.055 526.181 141.46 525.936C141.876 525.68 142.372 525.552 142.948 525.552C143.46 525.552 143.924 525.653 144.34 525.856C144.756 526.059 145.108 526.347 145.396 526.72C145.695 527.093 145.919 527.547 146.068 528.08C146.228 528.613 146.308 529.211 146.308 529.872C146.308 530.533 146.228 531.131 146.068 531.664C145.919 532.197 145.695 532.651 145.396 533.024C145.108 533.397 144.756 533.685 144.34 533.888C143.924 534.091 143.46 534.192 142.948 534.192C141.828 534.192 141.023 533.68 140.532 532.656H140.468V537.2H139.188V525.744ZM142.596 533.04C143.321 533.04 143.892 532.816 144.308 532.368C144.724 531.909 144.932 531.312 144.932 530.576V529.168C144.932 528.432 144.724 527.84 144.308 527.392C143.892 526.933 143.321 526.704 142.596 526.704C142.308 526.704 142.031 526.747 141.764 526.832C141.508 526.907 141.284 527.013 141.092 527.152C140.9 527.291 140.745 527.461 140.628 527.664C140.521 527.856 140.468 528.064 140.468 528.288V531.36C140.468 531.627 140.521 531.867 140.628 532.08C140.745 532.283 140.9 532.459 141.092 532.608C141.284 532.747 141.508 532.853 141.764 532.928C142.031 533.003 142.308 533.04 142.596 533.04ZM151.573 534.192C151.008 534.192 150.496 534.091 150.037 533.888C149.589 533.685 149.2 533.397 148.869 533.024C148.549 532.64 148.299 532.187 148.117 531.664C147.947 531.131 147.861 530.533 147.861 529.872C147.861 529.221 147.947 528.629 148.117 528.096C148.299 527.563 148.549 527.109 148.869 526.736C149.2 526.352 149.589 526.059 150.037 525.856C150.496 525.653 151.008 525.552 151.573 525.552C152.128 525.552 152.624 525.653 153.061 525.856C153.499 526.059 153.872 526.341 154.181 526.704C154.491 527.056 154.725 527.477 154.885 527.968C155.056 528.459 155.141 528.997 155.141 529.584V530.192H149.205V530.576C149.205 530.928 149.259 531.259 149.365 531.568C149.483 531.867 149.643 532.128 149.845 532.352C150.059 532.576 150.315 532.752 150.613 532.88C150.923 533.008 151.269 533.072 151.653 533.072C152.176 533.072 152.629 532.949 153.013 532.704C153.408 532.459 153.712 532.107 153.925 531.648L154.837 532.304C154.571 532.869 154.155 533.328 153.589 533.68C153.024 534.021 152.352 534.192 151.573 534.192ZM151.573 526.624C151.221 526.624 150.901 526.688 150.613 526.816C150.325 526.933 150.075 527.104 149.861 527.328C149.659 527.552 149.499 527.819 149.381 528.128C149.264 528.427 149.205 528.757 149.205 529.12V529.232H153.765V529.056C153.765 528.32 153.563 527.733 153.157 527.296C152.763 526.848 152.235 526.624 151.573 526.624ZM157.251 534V525.744H158.531V527.264H158.611C158.76 526.869 159.027 526.517 159.411 526.208C159.795 525.899 160.323 525.744 160.995 525.744H161.491V527.024H160.739C160.045 527.024 159.501 527.157 159.107 527.424C158.723 527.68 158.531 528.005 158.531 528.4V534H157.251ZM163.766 523.808C163.488 523.808 163.286 523.744 163.158 523.616C163.04 523.477 162.982 523.301 162.982 523.088V522.88C162.982 522.667 163.04 522.496 163.158 522.368C163.286 522.229 163.488 522.16 163.766 522.16C164.043 522.16 164.24 522.229 164.358 522.368C164.486 522.496 164.55 522.667 164.55 522.88V523.088C164.55 523.301 164.486 523.477 164.358 523.616C164.24 523.744 164.043 523.808 163.766 523.808ZM163.126 525.744H164.406V534H163.126V525.744ZM170.23 534.192C169.664 534.192 169.152 534.091 168.694 533.888C168.246 533.685 167.856 533.397 167.526 533.024C167.206 532.64 166.955 532.187 166.774 531.664C166.603 531.131 166.518 530.533 166.518 529.872C166.518 529.221 166.603 528.629 166.774 528.096C166.955 527.563 167.206 527.109 167.526 526.736C167.856 526.352 168.246 526.059 168.694 525.856C169.152 525.653 169.664 525.552 170.23 525.552C170.784 525.552 171.28 525.653 171.718 525.856C172.155 526.059 172.528 526.341 172.838 526.704C173.147 527.056 173.382 527.477 173.542 527.968C173.712 528.459 173.798 528.997 173.798 529.584V530.192H167.862V530.576C167.862 530.928 167.915 531.259 168.022 531.568C168.139 531.867 168.299 532.128 168.502 532.352C168.715 532.576 168.971 532.752 169.27 532.88C169.579 533.008 169.926 533.072 170.31 533.072C170.832 533.072 171.286 532.949 171.67 532.704C172.064 532.459 172.368 532.107 172.582 531.648L173.494 532.304C173.227 532.869 172.811 533.328 172.246 533.68C171.68 534.021 171.008 534.192 170.23 534.192ZM170.23 526.624C169.878 526.624 169.558 526.688 169.27 526.816C168.982 526.933 168.731 527.104 168.518 527.328C168.315 527.552 168.155 527.819 168.038 528.128C167.92 528.427 167.862 528.757 167.862 529.12V529.232H172.422V529.056C172.422 528.32 172.219 527.733 171.814 527.296C171.419 526.848 170.891 526.624 170.23 526.624ZM175.907 534V525.744H177.187V527.088H177.251C177.454 526.619 177.736 526.245 178.099 525.968C178.472 525.691 178.968 525.552 179.587 525.552C180.44 525.552 181.112 525.829 181.603 526.384C182.104 526.928 182.355 527.701 182.355 528.704V534H181.075V528.928C181.075 527.445 180.451 526.704 179.203 526.704C178.947 526.704 178.696 526.736 178.451 526.8C178.216 526.864 178.003 526.96 177.811 527.088C177.619 527.216 177.464 527.381 177.347 527.584C177.24 527.776 177.187 528.005 177.187 528.272V534H175.907ZM188.073 534.192C187.497 534.192 186.979 534.091 186.521 533.888C186.062 533.685 185.673 533.397 185.353 533.024C185.043 532.651 184.803 532.197 184.633 531.664C184.473 531.131 184.393 530.533 184.393 529.872C184.393 529.211 184.473 528.613 184.633 528.08C184.803 527.547 185.043 527.093 185.353 526.72C185.673 526.347 186.062 526.059 186.521 525.856C186.979 525.653 187.497 525.552 188.073 525.552C188.894 525.552 189.55 525.733 190.041 526.096C190.542 526.448 190.915 526.912 191.161 527.488L190.089 528.032C189.939 527.605 189.694 527.275 189.353 527.04C189.011 526.805 188.585 526.688 188.073 526.688C187.689 526.688 187.353 526.752 187.065 526.88C186.777 526.997 186.537 527.168 186.345 527.392C186.153 527.605 186.009 527.867 185.913 528.176C185.817 528.475 185.769 528.805 185.769 529.168V530.576C185.769 531.301 185.961 531.899 186.345 532.368C186.739 532.827 187.315 533.056 188.073 533.056C189.107 533.056 189.854 532.576 190.313 531.616L191.241 532.24C190.974 532.837 190.574 533.312 190.041 533.664C189.518 534.016 188.862 534.192 188.073 534.192ZM196.058 534.192C195.492 534.192 194.98 534.091 194.522 533.888C194.074 533.685 193.684 533.397 193.354 533.024C193.034 532.64 192.783 532.187 192.602 531.664C192.431 531.131 192.346 530.533 192.346 529.872C192.346 529.221 192.431 528.629 192.602 528.096C192.783 527.563 193.034 527.109 193.354 526.736C193.684 526.352 194.074 526.059 194.522 525.856C194.98 525.653 195.492 525.552 196.058 525.552C196.612 525.552 197.108 525.653 197.546 525.856C197.983 526.059 198.356 526.341 198.666 526.704C198.975 527.056 199.21 527.477 199.37 527.968C199.54 528.459 199.626 528.997 199.626 529.584V530.192H193.69V530.576C193.69 530.928 193.743 531.259 193.85 531.568C193.967 531.867 194.127 532.128 194.33 532.352C194.543 532.576 194.799 532.752 195.098 532.88C195.407 533.008 195.754 533.072 196.138 533.072C196.66 533.072 197.114 532.949 197.498 532.704C197.892 532.459 198.196 532.107 198.41 531.648L199.322 532.304C199.055 532.869 198.639 533.328 198.074 533.68C197.508 534.021 196.836 534.192 196.058 534.192ZM196.058 526.624C195.706 526.624 195.386 526.688 195.098 526.816C194.81 526.933 194.559 527.104 194.346 527.328C194.143 527.552 193.983 527.819 193.866 528.128C193.748 528.427 193.69 528.757 193.69 529.12V529.232H198.25V529.056C198.25 528.32 198.047 527.733 197.642 527.296C197.247 526.848 196.719 526.624 196.058 526.624Z" fill="#F2F4F8"/>
<path d="M300.25 535.5H287.75C287.062 535.5 286.5 534.938 286.5 534.25V521.75C286.5 521.062 287.062 520.5 287.75 520.5H293.375V521.75H287.75V534.25H300.25V528.625H301.5V534.25C301.5 534.938 300.938 535.5 300.25 535.5Z" fill="#F2F4F8"/>
<path d="M297.125 519.25V520.5H300.625L295.25 525.875L296.125 526.75L301.5 521.375V524.875H302.75V519.25H297.125Z" fill="#F2F4F8"/>
<rect y="97" width="3" height="47" fill="#0062FF"/>
</svg>
