<svg width="50" height="80" viewBox="0 0 50 80" fill="none" xmlns="http://www.w3.org/2000/svg">
<path d="M46 0H4C1.79086 0 0 1.79086 0 4V76C0 78.2091 1.79086 80 4 80H46C48.2091 80 50 78.2091 50 76V4C50 1.79086 48.2091 0 46 0Z" fill="white"/>
<path d="M41 5H9C6.79086 5 5 6.79086 5 9V31C5 33.2091 6.79086 35 9 35H41C43.2091 35 45 33.2091 45 31V9C45 6.79086 43.2091 5 41 5Z" fill="#E6EBF1"/>
<path d="M41 40H9C6.79086 40 5 41.7909 5 44V66C5 68.2091 6.79086 70 9 70H41C43.2091 70 45 68.2091 45 66V44C45 41.7909 43.2091 40 41 40Z" fill="#E6EBF1"/>
</svg>
