<svg width="500" height="400" viewBox="0 0 500 400" fill="none" xmlns="http://www.w3.org/2000/svg">
<rect width="500" height="400" fill="#8D8D8D"/>
<rect x="9" y="10" width="480" height="380" fill="#E5F2FE"/>
<rect x="9" y="10" width="480" height="133" fill="url(#paint0_linear)"/>
<path d="M206.5 123.5L9 42V273.5H206.5V123.5Z" fill="url(#paint1_linear)"/>
<path d="M160.5 120.5L10 273.5L489 275V69L433 10H336L274 69L256 55L176 138L160.5 120.5Z" fill="url(#paint2_linear)"/>
<path d="M60 127.5L9 42.5V273.5L81 200.5L42 127.5H60Z" fill="#3A5988"/>
<path d="M365.243 122.176L305.619 40L274.053 68.561L256.016 54.531L175.849 137.208L160.818 120.171L9 272L489 274V214.373L383.781 95.1178L365.243 122.176Z" fill="#0E2A34"/>
<path d="M239 189C180.2 162.6 52.5 216.916 9 271.749V329.749H489V220C486.333 220.333 473.2 224.049 416 231.249C344.5 240.249 312.5 222 239 189Z" fill="#463C4E"/>
<path d="M196 266C127.2 288.4 18.3333 312.5 9 327V390.5H489V346C428 315.167 264.8 243.6 196 266Z" fill="#92AFC9"/>
<path d="M186.5 297.5C143.3 288.7 50.1667 355.5 9 390H489V316.5C474.333 319.833 430.1 328.2 374.5 335C305 343.5 240.5 308.5 186.5 297.5Z" fill="#E0F1FA"/>
<circle cx="45.5" cy="29.5" r="12.5" fill="url(#paint3_linear)"/>
<path d="M238 10H248V391H238V10Z" fill="#8D8D8D"/>
<defs>
<linearGradient id="paint0_linear" x1="249" y1="10" x2="249" y2="143" gradientUnits="userSpaceOnUse">
<stop offset="0.0572917" stop-color="#0C2033"/>
<stop offset="0.963442" stop-color="#212B1D" stop-opacity="0.484375"/>
<stop offset="0.963542" stop-color="#3F6880" stop-opacity="0"/>
</linearGradient>
<linearGradient id="paint1_linear" x1="8.5" y1="33.5" x2="194.5" y2="241" gradientUnits="userSpaceOnUse">
<stop offset="0.480547" stop-color="#6187BF"/>
<stop offset="1" stop-opacity="0"/>
</linearGradient>
<linearGradient id="paint2_linear" x1="250.5" y1="10" x2="250.5" y2="275" gradientUnits="userSpaceOnUse">
<stop offset="0.4375" stop-color="#0D2B35"/>
<stop offset="0.9999" stop-color="#223D33"/>
<stop offset="1" stop-color="#223D33" stop-opacity="0.0260417"/>
</linearGradient>
<linearGradient id="paint3_linear" x1="33" y1="29" x2="58" y2="29" gradientUnits="userSpaceOnUse">
<stop stop-color="#E8E8E8"/>
<stop offset="0.0001" stop-color="#E8E8E8"/>
<stop offset="0.46875" stop-color="#E4E4E4" stop-opacity="0.520833"/>
<stop offset="0.96875" stop-color="#E4E4E4" stop-opacity="0"/>
<stop offset="1" stop-color="#E4E4E4" stop-opacity="0"/>
</linearGradient>
</defs>
</svg>
