<svg width="100" height="130" viewBox="0 0 100 130" fill="none" xmlns="http://www.w3.org/2000/svg">
<path d="M96 0H4C1.79086 0 0 1.79086 0 4V126C0 128.209 1.79086 130 4 130H96C98.2091 130 100 128.209 100 126V4C100 1.79086 98.2091 0 96 0Z" fill="white"/>
<path d="M43 56.3333H11C8.79086 56.3333 7 58.1242 7 60.3333V78.3333C7 80.5424 8.79086 82.3333 11 82.3333H43C45.2091 82.3333 47 80.5424 47 78.3333V60.3333C47 58.1242 45.2091 56.3333 43 56.3333Z" fill="#E6EBF1"/>
<path d="M43 89.2667H11C8.79086 89.2667 7 91.0576 7 93.2667V111.267C7 113.476 8.79086 115.267 11 115.267H43C45.2091 115.267 47 113.476 47 111.267V93.2667C47 91.0576 45.2091 89.2667 43 89.2667Z" fill="#E6EBF1"/>
<path d="M89 56.3333H57C54.7909 56.3333 53 58.1242 53 60.3333V78.3333C53 80.5424 54.7909 82.3333 57 82.3333H89C91.2091 82.3333 93 80.5424 93 78.3333V60.3333C93 58.1242 91.2091 56.3333 89 56.3333Z" fill="#E6EBF1"/>
<path d="M89 89.2667H57C54.7909 89.2667 53 91.0576 53 93.2667V111.267C53 113.476 54.7909 115.267 57 115.267H89C91.2091 115.267 93 113.476 93 111.267V93.2667C93 91.0576 91.2091 89.2667 89 89.2667Z" fill="#E6EBF1"/>
<path d="M89 11.2667H11C8.79086 11.2667 7 13.0576 7 15.2667V45.4C7 47.6091 8.79086 49.4 11 49.4H89C91.2091 49.4 93 47.6091 93 45.4V15.2667C93 13.0576 91.2091 11.2667 89 11.2667Z" fill="#E6EBF1"/>
</svg>
