<svg width="672" height="495" viewBox="0 0 672 495" fill="none" xmlns="http://www.w3.org/2000/svg">
<g clip-path="url(#clip0)">
<rect width="672" height="495" fill="#A4A4A4"/>
<rect y="447" width="256" height="48" fill="white"/>
<g filter="url(#filter0_d)">
<rect y="49" width="256" height="446" fill="white"/>
</g>
<rect y="97" width="256" height="48" fill="white"/>
<rect y="49" width="256" height="48" fill="white"/>
<rect x="16" y="96" width="224" height="1" fill="#DCDCDC"/>
<path d="M24.272 79H25.824V67.832H24.512V77.128H24.464L23.12 74.648L19.04 67.832H17.488V79H18.8V69.704H18.848L20.192 72.184L24.272 79ZM31.7765 79.192C33.3285 79.192 34.5125 78.424 35.0405 77.304L34.1285 76.648C33.6965 77.56 32.8965 78.072 31.8565 78.072C30.3205 78.072 29.4085 77 29.4085 75.576V75.192H35.3445V74.584C35.3445 72.248 33.9845 70.552 31.7765 70.552C29.5365 70.552 28.0645 72.248 28.0645 74.872C28.0645 77.496 29.5365 79.192 31.7765 79.192ZM31.7765 71.624C33.0885 71.624 33.9685 72.6 33.9685 74.056V74.232H29.4085V74.12C29.4085 72.68 30.3845 71.624 31.7765 71.624ZM40.8778 79V77.88H39.1978V71.864H41.0058V70.744H39.1978V68.456H38.0458V69.992C38.0458 70.552 37.8698 70.744 37.3258 70.744H36.5578V71.864H37.9178V77.64C37.9178 78.44 38.3978 79 39.2778 79H40.8778ZM44.4071 79H45.9591L47.1111 75.032L47.8151 72.52H47.8471L48.5671 75.032L49.7191 79H51.3031L53.4951 70.744H52.2951L51.3991 74.312L50.5511 77.928H50.5191L49.4951 74.312L48.4231 70.744H47.2871L46.2471 74.312L45.2391 77.928H45.2071L44.3271 74.312L43.4471 70.744H42.1991L44.4071 79ZM58.3863 79.192C60.5943 79.192 62.1143 77.496 62.1143 74.872C62.1143 72.248 60.5943 70.552 58.3863 70.552C56.1783 70.552 54.6583 72.248 54.6583 74.872C54.6583 77.496 56.1783 79.192 58.3863 79.192ZM58.3863 78.056C57.0103 78.056 56.0343 77.208 56.0343 75.464V74.28C56.0343 72.536 57.0103 71.688 58.3863 71.688C59.7623 71.688 60.7383 72.536 60.7383 74.28V75.464C60.7383 77.208 59.7623 78.056 58.3863 78.056ZM65.4994 79V73.4C65.4994 72.616 66.3314 72.024 67.7074 72.024H68.4594V70.744H67.9634C66.6194 70.744 65.8674 71.48 65.5794 72.264H65.4994V70.744H64.2194V79H65.4994ZM70.0944 79H71.3744V76.056L72.6064 74.792L75.3424 79H76.8944L73.5344 74.008L76.5904 70.744H75.0384L72.7024 73.256L71.4384 74.664H71.3744V67.16H70.0944V79Z" fill="#171717"/>
<path d="M24.8 117.016V115.832H16.352V117.016H19.904V127H21.248V117.016H24.8ZM28.5734 127.192C30.1254 127.192 31.3094 126.424 31.8374 125.304L30.9254 124.648C30.4934 125.56 29.6934 126.072 28.6534 126.072C27.1174 126.072 26.2054 125 26.2054 123.576V123.192H32.1414V122.584C32.1414 120.248 30.7814 118.552 28.5734 118.552C26.3334 118.552 24.8614 120.248 24.8614 122.872C24.8614 125.496 26.3334 127.192 28.5734 127.192ZM28.5734 119.624C29.8854 119.624 30.7654 120.6 30.7654 122.056V122.232H26.2054V122.12C26.2054 120.68 27.1814 119.624 28.5734 119.624ZM37.3226 127.192C38.8906 127.192 39.9626 126.424 40.4906 125.24L39.5626 124.616C39.1146 125.56 38.3626 126.056 37.3226 126.056C35.8026 126.056 35.0186 125.016 35.0186 123.576V122.168C35.0186 120.728 35.8026 119.688 37.3226 119.688C38.3306 119.688 39.0346 120.184 39.3386 121.032L40.4106 120.488C39.9306 119.352 38.9546 118.552 37.3226 118.552C35.0026 118.552 33.6426 120.232 33.6426 122.872C33.6426 125.512 35.0026 127.192 37.3226 127.192ZM42.2975 127H43.5775V121.272C43.5775 120.216 44.5695 119.704 45.5935 119.704C46.8255 119.704 47.4655 120.456 47.4655 121.928V127H48.7455V121.704C48.7455 119.704 47.6735 118.552 45.9775 118.552C44.7455 118.552 44.0415 119.16 43.6415 120.088H43.5775V115.16H42.2975V127ZM52.6713 127V121.272C52.6713 120.216 53.6633 119.704 54.6873 119.704C55.9193 119.704 56.5593 120.456 56.5593 121.928V127H57.8393V121.704C57.8393 119.704 56.7673 118.552 55.0713 118.552C53.8393 118.552 53.1353 119.16 52.7353 120.088H52.6713V118.744H51.3913V127H52.6713ZM63.605 127.192C65.813 127.192 67.333 125.496 67.333 122.872C67.333 120.248 65.813 118.552 63.605 118.552C61.397 118.552 59.877 120.248 59.877 122.872C59.877 125.496 61.397 127.192 63.605 127.192ZM63.605 126.056C62.229 126.056 61.253 125.208 61.253 123.464V122.28C61.253 120.536 62.229 119.688 63.605 119.688C64.981 119.688 65.957 120.536 65.957 122.28V123.464C65.957 125.208 64.981 126.056 63.605 126.056ZM71.9341 127V125.88H70.7181V115.16H69.4381V125.672C69.4381 126.44 69.9181 127 70.7981 127H71.9341ZM76.9175 127.192C79.1255 127.192 80.6455 125.496 80.6455 122.872C80.6455 120.248 79.1255 118.552 76.9175 118.552C74.7095 118.552 73.1895 120.248 73.1895 122.872C73.1895 125.496 74.7095 127.192 76.9175 127.192ZM76.9175 126.056C75.5415 126.056 74.5655 125.208 74.5655 123.464V122.28C74.5655 120.536 75.5415 119.688 76.9175 119.688C78.2935 119.688 79.2695 120.536 79.2695 122.28V123.464C79.2695 125.208 78.2935 126.056 76.9175 126.056ZM89.7106 127.912C89.7106 126.552 88.8306 125.72 86.7826 125.72H85.0226C84.2706 125.72 83.7586 125.592 83.7586 125.096C83.7586 124.584 84.3026 124.312 84.8466 124.168C85.0866 124.216 85.3746 124.248 85.6466 124.248C87.5346 124.248 88.7666 123.08 88.7666 121.4C88.7666 120.52 88.4146 119.784 87.8226 119.272V118.744H89.3906V117.624H88.1586C87.4706 117.624 87.1986 118.088 87.1986 118.728V118.872C86.7506 118.664 86.2226 118.552 85.6306 118.552C83.7586 118.552 82.5266 119.72 82.5266 121.4C82.5266 122.552 83.1026 123.464 84.0786 123.928V123.992C83.2466 124.2 82.6546 124.6 82.6546 125.432C82.6546 125.992 82.9266 126.36 83.3906 126.584V126.76C82.5746 126.984 82.0786 127.464 82.0786 128.36C82.0786 129.656 83.1346 130.392 85.7106 130.392C88.3666 130.392 89.7106 129.608 89.7106 127.912ZM88.5106 128.008C88.5106 128.904 87.6786 129.352 86.2546 129.352H85.0706C83.7746 129.352 83.2786 128.76 83.2786 128.04C83.2786 127.528 83.5186 127.16 84.0466 126.92H86.7986C88.0786 126.92 88.5106 127.352 88.5106 128.008ZM85.6466 123.224C84.5586 123.224 83.8706 122.712 83.8706 121.624V121.176C83.8706 120.088 84.5586 119.576 85.6466 119.576C86.7346 119.576 87.4226 120.088 87.4226 121.176V121.624C87.4226 122.712 86.7346 123.224 85.6466 123.224ZM94.3699 124.36L93.9219 125.704H93.8419L93.4579 124.36L91.4739 118.744H90.1939L93.2819 127.32L92.6579 129.08H91.3619V130.2H92.0179C93.2339 130.2 93.5699 129.912 93.9379 128.92L97.6339 118.744H96.3699L94.3699 124.36Z" fill="#171717"/>
<path d="M233.75 73L227.5 79.25L226.625 78.375L232 73L226.625 67.625L227.5 66.75L233.75 73Z" fill="#171717"/>
<rect y="145" width="256" height="48" fill="white"/>
<rect x="16" y="144" width="224" height="1" fill="#D8DCE3"/>
<rect x="16" y="192" width="223" height="1" fill="#DCDCDC"/>
<path d="M18.832 170.2H21.44L23.856 175H25.376L22.816 170.072C24.272 169.736 25.056 168.632 25.056 167C25.056 164.968 23.888 163.832 21.936 163.832H17.488V175H18.832V170.2ZM18.832 169.048V165.016H21.936C22.992 165.016 23.616 165.592 23.616 166.616V167.448C23.616 168.472 22.992 169.048 21.936 169.048H18.832ZM30.464 175.192C32.016 175.192 33.2 174.424 33.728 173.304L32.816 172.648C32.384 173.56 31.584 174.072 30.544 174.072C29.008 174.072 28.096 173 28.096 171.576V171.192H34.032V170.584C34.032 168.248 32.672 166.552 30.464 166.552C28.224 166.552 26.752 168.248 26.752 170.872C26.752 173.496 28.224 175.192 30.464 175.192ZM30.464 167.624C31.776 167.624 32.656 168.6 32.656 170.056V170.232H28.096V170.12C28.096 168.68 29.072 167.624 30.464 167.624ZM38.6213 175.192C40.5093 175.192 41.6773 174.216 41.6773 172.616C41.6773 171.368 40.9733 170.568 39.1493 170.296L38.5093 170.2C37.4853 170.04 36.9253 169.72 36.9253 168.92C36.9253 168.136 37.4853 167.64 38.5413 167.64C39.5973 167.64 40.3013 168.136 40.6693 168.648L41.5173 167.88C40.8453 167.048 39.9653 166.552 38.6373 166.552C36.9573 166.552 35.6933 167.352 35.6933 168.984C35.6933 170.52 36.8293 171.144 38.3493 171.368L39.0052 171.464C40.0933 171.624 40.4453 172.12 40.4453 172.76C40.4453 173.608 39.8053 174.104 38.7173 174.104C37.6773 174.104 36.9093 173.64 36.2693 172.84L35.3573 173.576C36.0933 174.552 37.1013 175.192 38.6213 175.192ZM47.0581 175.192C49.2661 175.192 50.7861 173.496 50.7861 170.872C50.7861 168.248 49.2661 166.552 47.0581 166.552C44.8501 166.552 43.3301 168.248 43.3301 170.872C43.3301 173.496 44.8501 175.192 47.0581 175.192ZM47.0581 174.056C45.6821 174.056 44.7061 173.208 44.7061 171.464V170.28C44.7061 168.536 45.6821 167.688 47.0581 167.688C48.4341 167.688 49.4101 168.536 49.4101 170.28V171.464C49.4101 173.208 48.4341 174.056 47.0581 174.056ZM57.9793 175H59.2593V166.744H57.9793V172.456C57.9793 173.544 56.9873 174.04 55.9793 174.04C54.7473 174.04 54.0913 173.288 54.0913 171.816V166.744H52.8113V172.04C52.8113 174.04 53.8993 175.192 55.5953 175.192C56.9713 175.192 57.5953 174.44 57.9153 173.656H57.9793V175ZM63.265 175V169.4C63.265 168.616 64.097 168.024 65.473 168.024H66.225V166.744H65.729C64.385 166.744 63.633 167.48 63.345 168.264H63.265V166.744H61.985V175H63.265ZM70.8539 175.192C72.4219 175.192 73.4939 174.424 74.0219 173.24L73.0939 172.616C72.6459 173.56 71.8939 174.056 70.8539 174.056C69.3339 174.056 68.5499 173.016 68.5499 171.576V170.168C68.5499 168.728 69.3339 167.688 70.8539 167.688C71.8619 167.688 72.5659 168.184 72.8699 169.032L73.9419 168.488C73.4619 167.352 72.4859 166.552 70.8539 166.552C68.5339 166.552 67.1739 168.232 67.1739 170.872C67.1739 173.512 68.5339 175.192 70.8539 175.192ZM78.839 175.192C80.391 175.192 81.575 174.424 82.103 173.304L81.191 172.648C80.759 173.56 79.959 174.072 78.919 174.072C77.383 174.072 76.471 173 76.471 171.576V171.192H82.407V170.584C82.407 168.248 81.047 166.552 78.839 166.552C76.599 166.552 75.127 168.248 75.127 170.872C75.127 173.496 76.599 175.192 78.839 175.192ZM78.839 167.624C80.151 167.624 81.031 168.6 81.031 170.056V170.232H76.471V170.12C76.471 168.68 77.447 167.624 78.839 167.624ZM86.9963 175.192C88.8843 175.192 90.0523 174.216 90.0523 172.616C90.0523 171.368 89.3483 170.568 87.5243 170.296L86.8843 170.2C85.8603 170.04 85.3003 169.72 85.3003 168.92C85.3003 168.136 85.8603 167.64 86.9163 167.64C87.9723 167.64 88.6763 168.136 89.0443 168.648L89.8923 167.88C89.2203 167.048 88.3403 166.552 87.0123 166.552C85.3323 166.552 84.0683 167.352 84.0683 168.984C84.0683 170.52 85.2043 171.144 86.7243 171.368L87.3802 171.464C88.4683 171.624 88.8203 172.12 88.8203 172.76C88.8203 173.608 88.1803 174.104 87.0923 174.104C86.0523 174.104 85.2843 173.64 84.6443 172.84L83.7323 173.576C84.4683 174.552 85.4763 175.192 86.9963 175.192Z" fill="#171717"/>
<path d="M233.75 169L227.5 175.25L226.625 174.375L232 169L226.625 163.625L227.5 162.75L233.75 169Z" fill="#171717"/>
<path d="M233.75 121L227.5 127.25L226.625 126.375L232 121L226.625 115.625L227.5 114.75L233.75 121Z" fill="#171717"/>
<path d="M18 467.808C17.7227 467.808 17.52 467.744 17.392 467.616C17.2747 467.477 17.216 467.301 17.216 467.088V466.88C17.216 466.667 17.2747 466.496 17.392 466.368C17.52 466.229 17.7227 466.16 18 466.16C18.2773 466.16 18.4747 466.229 18.592 466.368C18.72 466.496 18.784 466.667 18.784 466.88V467.088C18.784 467.301 18.72 467.477 18.592 467.616C18.4747 467.744 18.2773 467.808 18 467.808ZM17.36 469.744H18.64V478H17.36V469.744ZM21.36 466.16H22.64V471.088H22.704C22.9173 470.565 23.2267 470.181 23.632 469.936C24.048 469.68 24.544 469.552 25.12 469.552C25.632 469.552 26.096 469.653 26.512 469.856C26.928 470.059 27.28 470.347 27.568 470.72C27.8667 471.093 28.0907 471.547 28.24 472.08C28.4 472.613 28.48 473.211 28.48 473.872C28.48 474.533 28.4 475.131 28.24 475.664C28.0907 476.197 27.8667 476.651 27.568 477.024C27.28 477.397 26.928 477.685 26.512 477.888C26.096 478.091 25.632 478.192 25.12 478.192C24 478.192 23.1947 477.68 22.704 476.656H22.64V478H21.36V466.16ZM24.768 477.04C25.4933 477.04 26.064 476.816 26.48 476.368C26.896 475.909 27.104 475.312 27.104 474.576V473.168C27.104 472.432 26.896 471.84 26.48 471.392C26.064 470.933 25.4933 470.704 24.768 470.704C24.48 470.704 24.2027 470.747 23.936 470.832C23.68 470.907 23.456 471.013 23.264 471.152C23.072 471.291 22.9173 471.461 22.8 471.664C22.6933 471.856 22.64 472.064 22.64 472.288V475.36C22.64 475.627 22.6933 475.867 22.8 476.08C22.9173 476.283 23.072 476.459 23.264 476.608C23.456 476.747 23.68 476.853 23.936 476.928C24.2027 477.003 24.48 477.04 24.768 477.04ZM30.6413 478V469.744H31.9213V471.088H31.9853C32.0813 470.875 32.1879 470.677 32.3053 470.496C32.4333 470.304 32.5826 470.139 32.7533 470C32.9346 469.861 33.1426 469.755 33.3773 469.68C33.6119 469.595 33.8893 469.552 34.2093 469.552C34.7533 469.552 35.2546 469.685 35.7133 469.952C36.1719 470.208 36.5133 470.635 36.7373 471.232H36.7693C36.9186 470.784 37.1959 470.395 37.6013 470.064C38.0173 469.723 38.5773 469.552 39.2812 469.552C40.1239 469.552 40.7799 469.829 41.2493 470.384C41.7293 470.928 41.9693 471.701 41.9693 472.704V478H40.6893V472.928C40.6893 472.192 40.5453 471.637 40.2573 471.264C39.9693 470.891 39.5106 470.704 38.8813 470.704C38.6253 470.704 38.3799 470.736 38.1453 470.8C37.9213 470.864 37.7186 470.96 37.5373 471.088C37.3559 471.216 37.2119 471.381 37.1053 471.584C36.9986 471.776 36.9453 472.005 36.9453 472.272V478H35.6653V472.928C35.6653 472.192 35.5213 471.637 35.2333 471.264C34.9453 470.891 34.4973 470.704 33.8893 470.704C33.6333 470.704 33.3879 470.736 33.1533 470.8C32.9186 470.864 32.7106 470.96 32.5293 471.088C32.3479 471.216 32.1986 471.381 32.0813 471.584C31.9746 471.776 31.9213 472.005 31.9213 472.272V478H30.6413ZM45.426 478.192C45.0847 478.192 44.834 478.107 44.674 477.936C44.5247 477.765 44.45 477.541 44.45 477.264V477.056C44.45 476.779 44.5247 476.555 44.674 476.384C44.834 476.213 45.0847 476.128 45.426 476.128C45.7673 476.128 46.0127 476.213 46.162 476.384C46.322 476.555 46.402 476.779 46.402 477.056V477.264C46.402 477.541 46.322 477.765 46.162 477.936C46.0127 478.107 45.7673 478.192 45.426 478.192ZM51.8851 478.192C51.3091 478.192 50.7918 478.091 50.3331 477.888C49.8745 477.685 49.4851 477.397 49.1651 477.024C48.8558 476.651 48.6158 476.197 48.4451 475.664C48.2851 475.131 48.2051 474.533 48.2051 473.872C48.2051 473.211 48.2851 472.613 48.4451 472.08C48.6158 471.547 48.8558 471.093 49.1651 470.72C49.4851 470.347 49.8745 470.059 50.3331 469.856C50.7918 469.653 51.3091 469.552 51.8851 469.552C52.7065 469.552 53.3625 469.733 53.8531 470.096C54.3545 470.448 54.7278 470.912 54.9731 471.488L53.9011 472.032C53.7518 471.605 53.5065 471.275 53.1651 471.04C52.8238 470.805 52.3971 470.688 51.8851 470.688C51.5011 470.688 51.1651 470.752 50.8771 470.88C50.5891 470.997 50.3491 471.168 50.1571 471.392C49.9651 471.605 49.8211 471.867 49.7251 472.176C49.6291 472.475 49.5811 472.805 49.5811 473.168V474.576C49.5811 475.301 49.7731 475.899 50.1571 476.368C50.5518 476.827 51.1278 477.056 51.8851 477.056C52.9198 477.056 53.6665 476.576 54.1251 475.616L55.0531 476.24C54.7865 476.837 54.3865 477.312 53.8531 477.664C53.3305 478.016 52.6745 478.192 51.8851 478.192ZM59.8863 478.192C59.3316 478.192 58.8249 478.091 58.3663 477.888C57.9076 477.685 57.5129 477.397 57.1823 477.024C56.8623 476.64 56.6116 476.187 56.4303 475.664C56.2489 475.131 56.1583 474.533 56.1583 473.872C56.1583 473.221 56.2489 472.629 56.4303 472.096C56.6116 471.563 56.8623 471.109 57.1823 470.736C57.5129 470.352 57.9076 470.059 58.3663 469.856C58.8249 469.653 59.3316 469.552 59.8863 469.552C60.4409 469.552 60.9423 469.653 61.3903 469.856C61.8489 470.059 62.2436 470.352 62.5743 470.736C62.9049 471.109 63.1609 471.563 63.3423 472.096C63.5236 472.629 63.6143 473.221 63.6143 473.872C63.6143 474.533 63.5236 475.131 63.3423 475.664C63.1609 476.187 62.9049 476.64 62.5743 477.024C62.2436 477.397 61.8489 477.685 61.3903 477.888C60.9423 478.091 60.4409 478.192 59.8863 478.192ZM59.8863 477.056C60.5796 477.056 61.1449 476.843 61.5823 476.416C62.0196 475.989 62.2383 475.339 62.2383 474.464V473.28C62.2383 472.405 62.0196 471.755 61.5823 471.328C61.1449 470.901 60.5796 470.688 59.8863 470.688C59.1929 470.688 58.6276 470.901 58.1903 471.328C57.7529 471.755 57.5343 472.405 57.5343 473.28V474.464C57.5343 475.339 57.7529 475.989 58.1903 476.416C58.6276 476.843 59.1929 477.056 59.8863 477.056ZM65.7194 478V469.744H66.9994V471.088H67.0634C67.1594 470.875 67.266 470.677 67.3834 470.496C67.5114 470.304 67.6607 470.139 67.8314 470C68.0127 469.861 68.2207 469.755 68.4554 469.68C68.69 469.595 68.9674 469.552 69.2874 469.552C69.8314 469.552 70.3327 469.685 70.7914 469.952C71.25 470.208 71.5914 470.635 71.8154 471.232H71.8474C71.9967 470.784 72.274 470.395 72.6794 470.064C73.0954 469.723 73.6554 469.552 74.3594 469.552C75.202 469.552 75.858 469.829 76.3274 470.384C76.8074 470.928 77.0474 471.701 77.0474 472.704V478H75.7674V472.928C75.7674 472.192 75.6234 471.637 75.3354 471.264C75.0474 470.891 74.5887 470.704 73.9594 470.704C73.7034 470.704 73.458 470.736 73.2234 470.8C72.9994 470.864 72.7967 470.96 72.6154 471.088C72.434 471.216 72.29 471.381 72.1834 471.584C72.0767 471.776 72.0234 472.005 72.0234 472.272V478H70.7434V472.928C70.7434 472.192 70.5994 471.637 70.3114 471.264C70.0234 470.891 69.5754 470.704 68.9674 470.704C68.7114 470.704 68.466 470.736 68.2314 470.8C67.9967 470.864 67.7887 470.96 67.6074 471.088C67.426 471.216 67.2767 471.381 67.1594 471.584C67.0527 471.776 66.9994 472.005 66.9994 472.272V478H65.7194Z" fill="#3D3D3D"/>
<rect y="447" width="256" height="1" fill="#DCDCDC"/>
<rect y="494.5" width="320" height="0.5" fill="#D8DCE3"/>
<path d="M230.375 464.375C230.125 464.188 229.813 464.188 229.625 464.375L220.625 471.375L221.375 472.375L222.5 471.5V479.25C222.5 479.937 223.062 480.5 223.75 480.5H236.25C236.938 480.5 237.5 479.937 237.5 479.25V471.5L238.625 472.375L239.375 471.375L230.375 464.375ZM231.25 479.25H228.75V474.25H231.25V479.25ZM232.5 479.25V474.25C232.5 473.562 231.938 473 231.25 473H228.75C228.062 473 227.5 473.562 227.5 474.25V479.25H223.75V470.562L230 465.687L236.25 470.562V479.25H232.5Z" fill="black"/>
<rect width="672" height="48" fill="white"/>
<rect y="48" width="672" height="1" fill="#D8DCE3"/>
<path d="M64.848 30V28.304H66.32V20.528H64.848V18.832H69.92V20.528H68.432V28.304H69.92V30H64.848ZM72.0776 18.832H77.2456C77.7043 18.832 78.115 18.9013 78.4776 19.04C78.851 19.1787 79.1656 19.3707 79.4216 19.616C79.6776 19.8613 79.8696 20.1653 79.9976 20.528C80.1363 20.88 80.2056 21.2693 80.2056 21.696C80.2056 22.1227 80.147 22.4853 80.0296 22.784C79.923 23.072 79.7736 23.312 79.5816 23.504C79.4003 23.696 79.187 23.84 78.9416 23.936C78.707 24.032 78.4616 24.0853 78.2056 24.096V24.192C78.451 24.192 78.7123 24.24 78.9896 24.336C79.2776 24.432 79.539 24.5867 79.7736 24.8C80.019 25.0027 80.2216 25.2693 80.3816 25.6C80.5416 25.92 80.6216 26.32 80.6216 26.8C80.6216 27.248 80.547 27.6693 80.3976 28.064C80.259 28.448 80.0616 28.784 79.8056 29.072C79.5496 29.36 79.2456 29.5893 78.8936 29.76C78.5416 29.92 78.1576 30 77.7416 30H72.0776V18.832ZM74.1896 28.208H77.1336C77.539 28.208 77.8536 28.1067 78.0776 27.904C78.3016 27.6907 78.4136 27.3867 78.4136 26.992V26.448C78.4136 26.0533 78.3016 25.7493 78.0776 25.536C77.8536 25.3227 77.539 25.216 77.1336 25.216H74.1896V28.208ZM74.1896 23.488H76.7976C77.1816 23.488 77.4803 23.3867 77.6936 23.184C77.907 22.9707 78.0136 22.6773 78.0136 22.304V21.808C78.0136 21.4347 77.907 21.1467 77.6936 20.944C77.4803 20.7307 77.1816 20.624 76.7976 20.624H74.1896V23.488ZM91.119 21.984H91.055L90.191 23.76L87.903 27.984L85.615 23.76L84.751 21.984H84.687V30H82.687V18.832H85.071L87.935 24.288H87.999L90.831 18.832H93.119V30H91.119V21.984ZM106.731 32.848H105.179C104.443 32.848 103.899 32.6667 103.547 32.304C103.205 31.952 103.035 31.4507 103.035 30.8V30.128C101.819 29.9467 100.848 29.3707 100.123 28.4C99.4081 27.4293 99.0508 26.1013 99.0508 24.416C99.0508 23.4773 99.1681 22.6507 99.4028 21.936C99.6374 21.2107 99.9628 20.6027 100.379 20.112C100.805 19.6213 101.317 19.2533 101.915 19.008C102.512 18.7627 103.179 18.64 103.915 18.64C104.651 18.64 105.317 18.7627 105.915 19.008C106.512 19.2533 107.024 19.6213 107.451 20.112C107.877 20.6027 108.203 21.2107 108.427 21.936C108.661 22.6507 108.779 23.4773 108.779 24.416C108.779 26.0693 108.443 27.3707 107.771 28.32C107.099 29.2693 106.181 29.856 105.019 30.08V31.12H106.731V32.848ZM103.915 28.32C104.715 28.32 105.349 28.0533 105.819 27.52C106.299 26.9867 106.539 26.24 106.539 25.28V23.552C106.539 22.592 106.299 21.8453 105.819 21.312C105.349 20.7787 104.715 20.512 103.915 20.512C103.115 20.512 102.475 20.7787 101.995 21.312C101.525 21.8453 101.291 22.592 101.291 23.552V25.28C101.291 26.24 101.525 26.9867 101.995 27.52C102.475 28.0533 103.115 28.32 103.915 28.32Z" fill="black"/>
<rect x="47" y="12" width="1" height="24" fill="#DCDCDC"/>
<path d="M30 19.05L28.95 18L24 22.95L19.05 18L18 19.05L22.95 24L18 28.95L19.05 30L24 25.05L28.95 30L30 28.95L25.05 24L30 19.05Z" fill="#252525"/>
<path d="M389.75 31.8751L385 27.125C386 25.9375 386.625 24.375 386.625 22.75C386.625 18.9375 383.562 15.875 379.75 15.875C375.938 15.875 372.875 18.9375 372.875 22.75C372.875 26.5625 375.938 29.625 379.75 29.625C381.438 29.625 382.938 28.9999 384.125 27.9999L388.875 32.75L389.75 31.8751ZM374.125 22.75C374.125 19.625 376.625 17.125 379.75 17.125C382.875 17.125 385.375 19.625 385.375 22.75C385.375 25.875 382.875 28.375 379.75 28.375C376.625 28.375 374.125 25.875 374.125 22.75Z" fill="black"/>
<rect x="407" width="265" height="48" fill="#0062FF"/>
<rect x="408" y="1" width="263" height="46" stroke="#0062FF" stroke-width="2"/>
<path d="M424.488 29V17.832H425.832V27.816H430.584V29H424.488ZM438.36 29C437.88 29 437.533 28.872 437.32 28.616C437.117 28.36 436.989 28.04 436.936 27.656H436.856C436.675 28.168 436.376 28.552 435.96 28.808C435.544 29.064 435.048 29.192 434.472 29.192C433.597 29.192 432.915 28.968 432.424 28.52C431.944 28.072 431.704 27.464 431.704 26.696C431.704 25.9173 431.987 25.32 432.552 24.904C433.128 24.488 434.019 24.28 435.224 24.28H436.856V23.464C436.856 22.8773 436.696 22.4293 436.376 22.12C436.056 21.8107 435.565 21.656 434.904 21.656C434.403 21.656 433.981 21.768 433.64 21.992C433.309 22.216 433.032 22.5147 432.808 22.888L432.04 22.168C432.264 21.72 432.621 21.3413 433.112 21.032C433.603 20.712 434.221 20.552 434.968 20.552C435.971 20.552 436.749 20.7973 437.304 21.288C437.859 21.7787 438.136 22.4613 438.136 23.336V27.88H439.08V29H438.36ZM434.68 28.104C435 28.104 435.293 28.0667 435.56 27.992C435.827 27.9173 436.056 27.8107 436.248 27.672C436.44 27.5333 436.589 27.3733 436.696 27.192C436.803 27.0107 436.856 26.8133 436.856 26.6V25.24H435.16C434.424 25.24 433.885 25.3467 433.544 25.56C433.213 25.7733 433.048 26.0827 433.048 26.488V26.824C433.048 27.2293 433.192 27.544 433.48 27.768C433.779 27.992 434.179 28.104 434.68 28.104ZM445.995 27.656H445.931C445.846 27.848 445.739 28.04 445.611 28.232C445.494 28.4133 445.344 28.5787 445.163 28.728C444.982 28.8667 444.763 28.9787 444.507 29.064C444.251 29.1493 443.952 29.192 443.611 29.192C442.758 29.192 442.08 28.92 441.579 28.376C441.078 27.8213 440.827 27.0427 440.827 26.04V20.744H442.107V25.816C442.107 27.2987 442.736 28.04 443.995 28.04C444.251 28.04 444.496 28.008 444.731 27.944C444.976 27.88 445.19 27.784 445.371 27.656C445.563 27.528 445.712 27.368 445.819 27.176C445.936 26.9733 445.995 26.7333 445.995 26.456V20.744H447.275V29H445.995V27.656ZM450.001 29V20.744H451.281V22.088H451.345C451.547 21.6187 451.83 21.2453 452.193 20.968C452.566 20.6907 453.062 20.552 453.681 20.552C454.534 20.552 455.206 20.8293 455.697 21.384C456.198 21.928 456.449 22.7013 456.449 23.704V29H455.169V23.928C455.169 22.4453 454.545 21.704 453.297 21.704C453.041 21.704 452.79 21.736 452.545 21.8C452.31 21.864 452.097 21.96 451.905 22.088C451.713 22.216 451.558 22.3813 451.441 22.584C451.334 22.776 451.281 23.0053 451.281 23.272V29H450.001ZM462.166 29.192C461.59 29.192 461.073 29.0907 460.614 28.888C460.156 28.6853 459.766 28.3973 459.446 28.024C459.137 27.6507 458.897 27.1973 458.726 26.664C458.566 26.1307 458.486 25.5333 458.486 24.872C458.486 24.2107 458.566 23.6133 458.726 23.08C458.897 22.5467 459.137 22.0933 459.446 21.72C459.766 21.3467 460.156 21.0587 460.614 20.856C461.073 20.6533 461.59 20.552 462.166 20.552C462.988 20.552 463.644 20.7333 464.134 21.096C464.636 21.448 465.009 21.912 465.254 22.488L464.182 23.032C464.033 22.6053 463.788 22.2747 463.446 22.04C463.105 21.8053 462.678 21.688 462.166 21.688C461.782 21.688 461.446 21.752 461.158 21.88C460.87 21.9973 460.63 22.168 460.438 22.392C460.246 22.6053 460.102 22.8667 460.006 23.176C459.91 23.4747 459.862 23.8053 459.862 24.168V25.576C459.862 26.3013 460.054 26.8987 460.438 27.368C460.833 27.8267 461.409 28.056 462.166 28.056C463.201 28.056 463.948 27.576 464.406 26.616L465.334 27.24C465.068 27.8373 464.668 28.312 464.134 28.664C463.612 29.016 462.956 29.192 462.166 29.192ZM467.141 17.16H468.421V22.088H468.485C468.688 21.6187 468.971 21.2453 469.333 20.968C469.707 20.6907 470.203 20.552 470.821 20.552C471.675 20.552 472.347 20.8293 472.837 21.384C473.339 21.928 473.589 22.7013 473.589 23.704V29H472.309V23.928C472.309 22.4453 471.685 21.704 470.437 21.704C470.181 21.704 469.931 21.736 469.685 21.8C469.451 21.864 469.237 21.96 469.045 22.088C468.853 22.216 468.699 22.3813 468.581 22.584C468.475 22.776 468.421 23.0053 468.421 23.272V29H467.141V17.16ZM479.616 29V27.88H481.184V18.952H479.616V17.832H484.096V18.952H482.528V27.88H484.096V29H479.616ZM486.551 17.832H491.143C492.071 17.832 492.796 18.0933 493.319 18.616C493.852 19.1387 494.119 19.8373 494.119 20.712C494.119 21.128 494.06 21.48 493.943 21.768C493.825 22.056 493.676 22.296 493.495 22.488C493.313 22.6693 493.116 22.808 492.903 22.904C492.689 22.9893 492.492 23.048 492.311 23.08V23.176C492.513 23.1867 492.737 23.24 492.983 23.336C493.239 23.432 493.479 23.5867 493.703 23.8C493.927 24.0027 494.113 24.2693 494.263 24.6C494.423 24.92 494.503 25.3093 494.503 25.768C494.503 26.2267 494.428 26.6533 494.279 27.048C494.14 27.4427 493.943 27.784 493.687 28.072C493.431 28.36 493.127 28.5893 492.775 28.76C492.423 28.92 492.039 29 491.623 29H486.551V17.832ZM487.895 27.816H491.207C491.783 27.816 492.236 27.672 492.567 27.384C492.897 27.0853 493.062 26.6533 493.062 26.088V25.544C493.062 24.9787 492.897 24.552 492.567 24.264C492.236 23.9653 491.783 23.816 491.207 23.816H487.895V27.816ZM487.895 22.664H490.983C491.516 22.664 491.932 22.5307 492.231 22.264C492.529 21.9973 492.679 21.6133 492.679 21.112V20.568C492.679 20.0667 492.529 19.6827 492.231 19.416C491.932 19.1493 491.516 19.016 490.983 19.016H487.895V22.664ZM505.708 19.592H505.628L504.684 21.464L502.012 26.328L499.34 21.464L498.396 19.592H498.316V29H497.004V17.832H498.796L501.996 23.848H502.076L505.292 17.832H507.02V29H505.708V19.592ZM520.409 31.624H518.761C518.313 31.624 517.977 31.496 517.753 31.24C517.529 30.9947 517.417 30.6853 517.417 30.312V29.176C516.777 29.112 516.196 28.9413 515.673 28.664C515.151 28.3867 514.708 28.008 514.345 27.528C513.983 27.0373 513.7 26.4507 513.497 25.768C513.305 25.0747 513.209 24.2907 513.209 23.416C513.209 22.4773 513.321 21.6507 513.545 20.936C513.769 20.2213 514.084 19.6187 514.489 19.128C514.905 18.6373 515.401 18.2693 515.977 18.024C516.564 17.768 517.22 17.64 517.945 17.64C518.66 17.64 519.311 17.768 519.897 18.024C520.484 18.2693 520.98 18.6373 521.385 19.128C521.801 19.6187 522.121 20.2213 522.345 20.936C522.569 21.6507 522.681 22.4773 522.681 23.416C522.681 25.1333 522.324 26.4773 521.609 27.448C520.895 28.408 519.924 28.9733 518.697 29.144V30.504H520.409V31.624ZM517.945 27.992C518.425 27.992 518.868 27.9067 519.273 27.736C519.679 27.5653 520.025 27.32 520.313 27C520.612 26.68 520.841 26.296 521.001 25.848C521.161 25.4 521.241 24.8987 521.241 24.344V22.488C521.241 21.9333 521.161 21.432 521.001 20.984C520.841 20.536 520.612 20.152 520.313 19.832C520.025 19.512 519.679 19.2667 519.273 19.096C518.868 18.9253 518.425 18.84 517.945 18.84C517.465 18.84 517.023 18.9253 516.617 19.096C516.212 19.2667 515.86 19.512 515.561 19.832C515.273 20.152 515.049 20.536 514.889 20.984C514.729 21.432 514.649 21.9333 514.649 22.488V24.344C514.649 24.8987 514.729 25.4 514.889 25.848C515.049 26.296 515.273 26.68 515.561 27C515.86 27.32 516.212 27.5653 516.617 27.736C517.023 27.9067 517.465 27.992 517.945 27.992ZM528.879 29V17.832H535.695V19.016H530.223V22.76H535.375V23.944H530.223V27.816H535.695V29H528.879ZM537.055 29L540.111 24.84L537.183 20.744H538.687L540.783 23.816H540.831L543.007 20.744H544.431L541.519 24.744L544.495 29H542.991L540.847 25.768H540.799L538.479 29H537.055ZM546.188 20.744H547.468V22.088H547.532C547.745 21.5653 548.055 21.1813 548.46 20.936C548.876 20.68 549.372 20.552 549.948 20.552C550.46 20.552 550.924 20.6533 551.34 20.856C551.756 21.0587 552.108 21.3467 552.396 21.72C552.695 22.0933 552.919 22.5467 553.068 23.08C553.228 23.6133 553.308 24.2107 553.308 24.872C553.308 25.5333 553.228 26.1307 553.068 26.664C552.919 27.1973 552.695 27.6507 552.396 28.024C552.108 28.3973 551.756 28.6853 551.34 28.888C550.924 29.0907 550.46 29.192 549.948 29.192C548.828 29.192 548.023 28.68 547.532 27.656H547.468V32.2H546.188V20.744ZM549.596 28.04C550.321 28.04 550.892 27.816 551.308 27.368C551.724 26.9093 551.932 26.312 551.932 25.576V24.168C551.932 23.432 551.724 22.84 551.308 22.392C550.892 21.9333 550.321 21.704 549.596 21.704C549.308 21.704 549.031 21.7467 548.764 21.832C548.508 21.9067 548.284 22.0133 548.092 22.152C547.9 22.2907 547.745 22.4613 547.628 22.664C547.521 22.856 547.468 23.064 547.468 23.288V26.36C547.468 26.6267 547.521 26.8667 547.628 27.08C547.745 27.2827 547.9 27.4587 548.092 27.608C548.284 27.7467 548.508 27.8533 548.764 27.928C549.031 28.0027 549.308 28.04 549.596 28.04ZM558.573 29.192C558.008 29.192 557.496 29.0907 557.037 28.888C556.589 28.6853 556.2 28.3973 555.869 28.024C555.549 27.64 555.299 27.1867 555.117 26.664C554.947 26.1307 554.861 25.5333 554.861 24.872C554.861 24.2213 554.947 23.6293 555.117 23.096C555.299 22.5627 555.549 22.1093 555.869 21.736C556.2 21.352 556.589 21.0587 557.037 20.856C557.496 20.6533 558.008 20.552 558.573 20.552C559.128 20.552 559.624 20.6533 560.061 20.856C560.499 21.0587 560.872 21.3413 561.181 21.704C561.491 22.056 561.725 22.4773 561.885 22.968C562.056 23.4587 562.141 23.9973 562.141 24.584V25.192H556.205V25.576C556.205 25.928 556.259 26.2587 556.365 26.568C556.483 26.8667 556.643 27.128 556.845 27.352C557.059 27.576 557.315 27.752 557.613 27.88C557.923 28.008 558.269 28.072 558.653 28.072C559.176 28.072 559.629 27.9493 560.013 27.704C560.408 27.4587 560.712 27.1067 560.925 26.648L561.837 27.304C561.571 27.8693 561.155 28.328 560.589 28.68C560.024 29.0213 559.352 29.192 558.573 29.192ZM558.573 21.624C558.221 21.624 557.901 21.688 557.613 21.816C557.325 21.9333 557.075 22.104 556.861 22.328C556.659 22.552 556.499 22.8187 556.381 23.128C556.264 23.4267 556.205 23.7573 556.205 24.12V24.232H560.765V24.056C560.765 23.32 560.563 22.7333 560.157 22.296C559.763 21.848 559.235 21.624 558.573 21.624ZM564.251 29V20.744H565.531V22.264H565.611C565.76 21.8693 566.027 21.5173 566.411 21.208C566.795 20.8987 567.323 20.744 567.995 20.744H568.491V22.024H567.739C567.045 22.024 566.501 22.1573 566.107 22.424C565.723 22.68 565.531 23.0053 565.531 23.4V29H564.251ZM570.766 18.808C570.488 18.808 570.286 18.744 570.158 18.616C570.04 18.4773 569.982 18.3013 569.982 18.088V17.88C569.982 17.6667 570.04 17.496 570.158 17.368C570.286 17.2293 570.488 17.16 570.766 17.16C571.043 17.16 571.24 17.2293 571.358 17.368C571.486 17.496 571.55 17.6667 571.55 17.88V18.088C571.55 18.3013 571.486 18.4773 571.358 18.616C571.24 18.744 571.043 18.808 570.766 18.808ZM570.126 20.744H571.406V29H570.126V20.744ZM577.23 29.192C576.664 29.192 576.152 29.0907 575.694 28.888C575.246 28.6853 574.856 28.3973 574.526 28.024C574.206 27.64 573.955 27.1867 573.774 26.664C573.603 26.1307 573.518 25.5333 573.518 24.872C573.518 24.2213 573.603 23.6293 573.774 23.096C573.955 22.5627 574.206 22.1093 574.526 21.736C574.856 21.352 575.246 21.0587 575.694 20.856C576.152 20.6533 576.664 20.552 577.23 20.552C577.784 20.552 578.28 20.6533 578.718 20.856C579.155 21.0587 579.528 21.3413 579.838 21.704C580.147 22.056 580.382 22.4773 580.542 22.968C580.712 23.4587 580.798 23.9973 580.798 24.584V25.192H574.862V25.576C574.862 25.928 574.915 26.2587 575.022 26.568C575.139 26.8667 575.299 27.128 575.502 27.352C575.715 27.576 575.971 27.752 576.27 27.88C576.579 28.008 576.926 28.072 577.31 28.072C577.832 28.072 578.286 27.9493 578.67 27.704C579.064 27.4587 579.368 27.1067 579.582 26.648L580.494 27.304C580.227 27.8693 579.811 28.328 579.246 28.68C578.68 29.0213 578.008 29.192 577.23 29.192ZM577.23 21.624C576.878 21.624 576.558 21.688 576.27 21.816C575.982 21.9333 575.731 22.104 575.518 22.328C575.315 22.552 575.155 22.8187 575.038 23.128C574.92 23.4267 574.862 23.7573 574.862 24.12V24.232H579.422V24.056C579.422 23.32 579.219 22.7333 578.814 22.296C578.419 21.848 577.891 21.624 577.23 21.624ZM582.907 29V20.744H584.187V22.088H584.251C584.454 21.6187 584.736 21.2453 585.099 20.968C585.472 20.6907 585.968 20.552 586.587 20.552C587.44 20.552 588.112 20.8293 588.603 21.384C589.104 21.928 589.355 22.7013 589.355 23.704V29H588.075V23.928C588.075 22.4453 587.451 21.704 586.203 21.704C585.947 21.704 585.696 21.736 585.451 21.8C585.216 21.864 585.003 21.96 584.811 22.088C584.619 22.216 584.464 22.3813 584.347 22.584C584.24 22.776 584.187 23.0053 584.187 23.272V29H582.907ZM595.073 29.192C594.497 29.192 593.979 29.0907 593.521 28.888C593.062 28.6853 592.673 28.3973 592.353 28.024C592.043 27.6507 591.803 27.1973 591.633 26.664C591.473 26.1307 591.393 25.5333 591.393 24.872C591.393 24.2107 591.473 23.6133 591.633 23.08C591.803 22.5467 592.043 22.0933 592.353 21.72C592.673 21.3467 593.062 21.0587 593.521 20.856C593.979 20.6533 594.497 20.552 595.073 20.552C595.894 20.552 596.55 20.7333 597.041 21.096C597.542 21.448 597.915 21.912 598.161 22.488L597.089 23.032C596.939 22.6053 596.694 22.2747 596.353 22.04C596.011 21.8053 595.585 21.688 595.073 21.688C594.689 21.688 594.353 21.752 594.065 21.88C593.777 21.9973 593.537 22.168 593.345 22.392C593.153 22.6053 593.009 22.8667 592.913 23.176C592.817 23.4747 592.769 23.8053 592.769 24.168V25.576C592.769 26.3013 592.961 26.8987 593.345 27.368C593.739 27.8267 594.315 28.056 595.073 28.056C596.107 28.056 596.854 27.576 597.313 26.616L598.241 27.24C597.974 27.8373 597.574 28.312 597.041 28.664C596.518 29.016 595.862 29.192 595.073 29.192ZM603.058 29.192C602.492 29.192 601.98 29.0907 601.522 28.888C601.074 28.6853 600.684 28.3973 600.354 28.024C600.034 27.64 599.783 27.1867 599.602 26.664C599.431 26.1307 599.346 25.5333 599.346 24.872C599.346 24.2213 599.431 23.6293 599.602 23.096C599.783 22.5627 600.034 22.1093 600.354 21.736C600.684 21.352 601.074 21.0587 601.522 20.856C601.98 20.6533 602.492 20.552 603.058 20.552C603.612 20.552 604.108 20.6533 604.546 20.856C604.983 21.0587 605.356 21.3413 605.666 21.704C605.975 22.056 606.21 22.4773 606.37 22.968C606.54 23.4587 606.626 23.9973 606.626 24.584V25.192H600.69V25.576C600.69 25.928 600.743 26.2587 600.85 26.568C600.967 26.8667 601.127 27.128 601.33 27.352C601.543 27.576 601.799 27.752 602.098 27.88C602.407 28.008 602.754 28.072 603.138 28.072C603.66 28.072 604.114 27.9493 604.498 27.704C604.892 27.4587 605.196 27.1067 605.41 26.648L606.322 27.304C606.055 27.8693 605.639 28.328 605.074 28.68C604.508 29.0213 603.836 29.192 603.058 29.192ZM603.058 21.624C602.706 21.624 602.386 21.688 602.098 21.816C601.81 21.9333 601.559 22.104 601.346 22.328C601.143 22.552 600.983 22.8187 600.866 23.128C600.748 23.4267 600.69 23.7573 600.69 24.12V24.232H605.25V24.056C605.25 23.32 605.047 22.7333 604.642 22.296C604.247 21.848 603.719 21.624 603.058 21.624Z" fill="white"/>
<path d="M644.25 30.5H631.75C631.062 30.5 630.5 29.9375 630.5 29.25V16.75C630.5 16.0625 631.062 15.5 631.75 15.5H637.375V16.75H631.75V29.25H644.25V23.625H645.5V29.25C645.5 29.9375 644.938 30.5 644.25 30.5Z" fill="#F2F4F8"/>
<path d="M641.125 14.25V15.5H644.625L639.25 20.8751L640.125 21.75L645.5 16.3749V19.875H646.75V14.25H641.125Z" fill="#F2F4F8"/>
<rect y="97" width="3" height="47" fill="#0062FF"/>
</g>
<defs>
<filter id="filter0_d" x="-6" y="45" width="268" height="458" filterUnits="userSpaceOnUse" color-interpolation-filters="sRGB">
<feFlood flood-opacity="0" result="BackgroundImageFix"/>
<feColorMatrix in="SourceAlpha" type="matrix" values="0 0 0 0 0 0 0 0 0 0 0 0 0 0 0 0 0 0 127 0"/>
<feOffset dy="2"/>
<feGaussianBlur stdDeviation="3"/>
<feColorMatrix type="matrix" values="0 0 0 0 0 0 0 0 0 0 0 0 0 0 0 0 0 0 0.3 0"/>
<feBlend mode="normal" in2="BackgroundImageFix" result="effect1_dropShadow"/>
<feBlend mode="normal" in="SourceGraphic" in2="effect1_dropShadow" result="shape"/>
</filter>
<clipPath id="clip0">
<rect width="672" height="495" fill="white"/>
</clipPath>
</defs>
</svg>
