<svg width="500" height="350" viewBox="0 0 500 350" fill="none" xmlns="http://www.w3.org/2000/svg">
<path d="M0 5.99999C0 2.68628 2.68629 0 6 0H494C497.314 0 500 2.68629 500 6V344C500 347.314 497.314 350 494 350H6.00001C2.6863 350 0 347.314 0 344V5.99999Z" fill="#120F32"/>
<path d="M0 6C0 2.68629 2.68629 0 6 0H494C497.314 0 500 2.68629 500 6V25H0V6Z" fill="#5B5B5B"/>
<circle cx="23.5" cy="12.5" r="7.5" fill="#FF6363"/>
<circle cx="69.5" cy="12.5" r="7.5" fill="#6DE26A"/>
<circle cx="46.5" cy="12.5" r="7.5" fill="#DCE00D"/>
<circle cx="23.5" cy="12.5" r="2.5" fill="#484848"/>
</svg>
