<svg width="500" height="350" viewBox="0 0 500 350" fill="none" xmlns="http://www.w3.org/2000/svg">
<path d="M0 5.99999C0 2.68628 2.68629 0 6 0H494C497.314 0 500 2.68629 500 6V344C500 347.314 497.314 350 494 350H6.00001C2.6863 350 0 347.314 0 344V5.99999Z" fill="#120F32"/>
<path d="M0 6C0 2.68629 2.68629 0 6 0H494C497.314 0 500 2.68629 500 6V25H0V6Z" fill="#5B5B5B"/>
<circle cx="23.5" cy="12.5" r="7.5" fill="#FF6363"/>
<circle cx="69.5" cy="12.5" r="7.5" fill="#6DE26A"/>
<circle cx="46.5" cy="12.5" r="7.5" fill="#DCE00D"/>
<circle cx="23.5" cy="12.5" r="2.5" fill="#484848"/>
<path d="M21.7012 52.7734H18.127L17.3242 55H16.1641L19.4219 46.4688H20.4062L23.6699 55H22.5156L21.7012 52.7734ZM18.4668 51.8477H21.3672L19.9141 47.8574L18.4668 51.8477ZM30.0039 51.9004C30.0039 52.8652 29.7832 53.6426 29.3418 54.2324C28.9004 54.8223 28.3027 55.1172 27.5488 55.1172C26.7793 55.1172 26.1738 54.873 25.7324 54.3848V57.4375H24.6484V48.6602H25.6387L25.6914 49.3633C26.1328 48.8164 26.7461 48.543 27.5312 48.543C28.293 48.543 28.8945 48.8301 29.3359 49.4043C29.7812 49.9785 30.0039 50.7773 30.0039 51.8008V51.9004ZM28.9199 51.7773C28.9199 51.0625 28.7676 50.498 28.4629 50.084C28.1582 49.6699 27.7402 49.4629 27.209 49.4629C26.5527 49.4629 26.0605 49.7539 25.7324 50.3359V53.3652C26.0566 53.9434 26.5527 54.2324 27.2207 54.2324C27.7402 54.2324 28.1523 54.0273 28.457 53.6172C28.7656 53.2031 28.9199 52.5898 28.9199 51.7773ZM36.7422 51.9004C36.7422 52.8652 36.5215 53.6426 36.0801 54.2324C35.6387 54.8223 35.041 55.1172 34.2871 55.1172C33.5176 55.1172 32.9121 54.873 32.4707 54.3848V57.4375H31.3867V48.6602H32.377L32.4297 49.3633C32.8711 48.8164 33.4844 48.543 34.2695 48.543C35.0312 48.543 35.6328 48.8301 36.0742 49.4043C36.5195 49.9785 36.7422 50.7773 36.7422 51.8008V51.9004ZM35.6582 51.7773C35.6582 51.0625 35.5059 50.498 35.2012 50.084C34.8965 49.6699 34.4785 49.4629 33.9473 49.4629C33.291 49.4629 32.7988 49.7539 32.4707 50.3359V53.3652C32.7949 53.9434 33.291 54.2324 33.959 54.2324C34.4785 54.2324 34.8906 54.0273 35.1953 53.6172C35.5039 53.2031 35.6582 52.5898 35.6582 51.7773ZM44.166 49.6328C44.002 49.6055 43.8242 49.5918 43.6328 49.5918C42.9219 49.5918 42.4395 49.8945 42.1855 50.5V55H41.1016V48.6602H42.1562L42.1738 49.3926C42.5293 48.8262 43.0332 48.543 43.6855 48.543C43.8965 48.543 44.0566 48.5703 44.166 48.625V49.6328ZM49.082 54.373C48.6602 54.8691 48.041 55.1172 47.2246 55.1172C46.5488 55.1172 46.0332 54.9219 45.6777 54.5312C45.3262 54.1367 45.1484 53.5547 45.1445 52.7852V48.6602H46.2285V52.7559C46.2285 53.7168 46.6191 54.1973 47.4004 54.1973C48.2285 54.1973 48.7793 53.8887 49.0527 53.2715V48.6602H50.1367V55H49.1055L49.082 54.373ZM52.8145 48.6602L52.8496 49.457C53.334 48.8477 53.9668 48.543 54.748 48.543C56.0879 48.543 56.7637 49.2988 56.7754 50.8105V55H55.6914V50.8047C55.6875 50.3477 55.582 50.0098 55.375 49.791C55.1719 49.5723 54.8535 49.4629 54.4199 49.4629C54.0684 49.4629 53.7598 49.5566 53.4941 49.7441C53.2285 49.9316 53.0215 50.1777 52.873 50.4824V55H51.7891V48.6602H52.8145ZM59.4355 48.6602L59.4707 49.457C59.9551 48.8477 60.5879 48.543 61.3691 48.543C62.709 48.543 63.3848 49.2988 63.3965 50.8105V55H62.3125V50.8047C62.3086 50.3477 62.2031 50.0098 61.9961 49.791C61.793 49.5723 61.4746 49.4629 61.041 49.4629C60.6895 49.4629 60.3809 49.5566 60.1152 49.7441C59.8496 49.9316 59.6426 50.1777 59.4941 50.4824V55H58.4102V48.6602H59.4355ZM66.209 55H65.125V48.6602H66.209V55ZM65.0371 46.9785C65.0371 46.8027 65.0898 46.6543 65.1953 46.5332C65.3047 46.4121 65.4648 46.3516 65.6758 46.3516C65.8867 46.3516 66.0469 46.4121 66.1562 46.5332C66.2656 46.6543 66.3203 46.8027 66.3203 46.9785C66.3203 47.1543 66.2656 47.3008 66.1562 47.418C66.0469 47.5352 65.8867 47.5938 65.6758 47.5938C65.4648 47.5938 65.3047 47.5352 65.1953 47.418C65.0898 47.3008 65.0371 47.1543 65.0371 46.9785ZM68.9746 48.6602L69.0098 49.457C69.4941 48.8477 70.127 48.543 70.9082 48.543C72.248 48.543 72.9238 49.2988 72.9355 50.8105V55H71.8516V50.8047C71.8477 50.3477 71.7422 50.0098 71.5352 49.791C71.332 49.5723 71.0137 49.4629 70.5801 49.4629C70.2285 49.4629 69.9199 49.5566 69.6543 49.7441C69.3887 49.9316 69.1816 50.1777 69.0332 50.4824V55H67.9492V48.6602H68.9746ZM74.3125 51.7773C74.3125 50.7891 74.541 50.0039 74.998 49.4219C75.4551 48.8359 76.0605 48.543 76.8145 48.543C77.5879 48.543 78.1914 48.8164 78.625 49.3633L78.6777 48.6602H79.668V54.8477C79.668 55.668 79.4238 56.3145 78.9355 56.7871C78.4512 57.2598 77.7988 57.4961 76.9785 57.4961C76.5215 57.4961 76.0742 57.3984 75.6367 57.2031C75.1992 57.0078 74.8652 56.7402 74.6348 56.4004L75.1973 55.75C75.6621 56.3242 76.2305 56.6113 76.9023 56.6113C77.4297 56.6113 77.8398 56.4629 78.1328 56.166C78.4297 55.8691 78.5781 55.4512 78.5781 54.9121V54.3672C78.1445 54.8672 77.5527 55.1172 76.8027 55.1172C76.0605 55.1172 75.459 54.8184 74.998 54.2207C74.541 53.623 74.3125 52.8086 74.3125 51.7773ZM75.4023 51.9004C75.4023 52.6152 75.5488 53.1777 75.8418 53.5879C76.1348 53.9941 76.5449 54.1973 77.0723 54.1973C77.7559 54.1973 78.2578 53.8867 78.5781 53.2656V50.3711C78.2461 49.7656 77.748 49.4629 77.084 49.4629C76.5566 49.4629 76.1445 49.668 75.8477 50.0781C75.5508 50.4883 75.4023 51.0957 75.4023 51.9004ZM88.1992 55C88.1367 54.875 88.0859 54.6523 88.0469 54.332C87.543 54.8555 86.9414 55.1172 86.2422 55.1172C85.6172 55.1172 85.1035 54.9414 84.7012 54.5898C84.3027 54.2344 84.1035 53.7852 84.1035 53.2422C84.1035 52.582 84.3535 52.0703 84.8535 51.707C85.3574 51.3398 86.0645 51.1562 86.9746 51.1562H88.0293V50.6582C88.0293 50.2793 87.916 49.9785 87.6895 49.7559C87.4629 49.5293 87.1289 49.416 86.6875 49.416C86.3008 49.416 85.9766 49.5137 85.7148 49.709C85.4531 49.9043 85.3223 50.1406 85.3223 50.418H84.2324C84.2324 50.1016 84.3438 49.7969 84.5664 49.5039C84.793 49.207 85.0977 48.9727 85.4805 48.8008C85.8672 48.6289 86.291 48.543 86.752 48.543C87.4824 48.543 88.0547 48.7266 88.4688 49.0938C88.8828 49.457 89.0977 49.959 89.1133 50.5996V53.5176C89.1133 54.0996 89.1875 54.5625 89.3359 54.9062V55H88.1992ZM86.4004 54.1738C86.7402 54.1738 87.0625 54.0859 87.3672 53.9102C87.6719 53.7344 87.8926 53.5059 88.0293 53.2246V51.9238H87.1797C85.8516 51.9238 85.1875 52.3125 85.1875 53.0898C85.1875 53.4297 85.3008 53.6953 85.5273 53.8867C85.7539 54.0781 86.0449 54.1738 86.4004 54.1738ZM92.2832 47.125V48.6602H93.4668V49.498H92.2832V53.4297C92.2832 53.6836 92.3359 53.875 92.4414 54.0039C92.5469 54.1289 92.7266 54.1914 92.9805 54.1914C93.1055 54.1914 93.2773 54.168 93.4961 54.1211V55C93.2109 55.0781 92.9336 55.1172 92.6641 55.1172C92.1797 55.1172 91.8145 54.9707 91.5684 54.6777C91.3223 54.3848 91.1992 53.9688 91.1992 53.4297V49.498H90.0449V48.6602H91.1992V47.125H92.2832ZM94.7031 54.4316C94.7031 54.2441 94.7578 54.0879 94.8672 53.9629C94.9805 53.8379 95.1484 53.7754 95.3711 53.7754C95.5938 53.7754 95.7617 53.8379 95.875 53.9629C95.9922 54.0879 96.0508 54.2441 96.0508 54.4316C96.0508 54.6113 95.9922 54.7617 95.875 54.8828C95.7617 55.0039 95.5938 55.0645 95.3711 55.0645C95.1484 55.0645 94.9805 55.0039 94.8672 54.8828C94.7578 54.7617 94.7031 54.6113 94.7031 54.4316ZM94.709 49.2578C94.709 49.0703 94.7637 48.9141 94.873 48.7891C94.9863 48.6641 95.1543 48.6016 95.377 48.6016C95.5996 48.6016 95.7676 48.6641 95.8809 48.7891C95.998 48.9141 96.0566 49.0703 96.0566 49.2578C96.0566 49.4375 95.998 49.5879 95.8809 49.709C95.7676 49.8301 95.5996 49.8906 95.377 49.8906C95.1543 49.8906 94.9863 49.8301 94.873 49.709C94.7637 49.5879 94.709 49.4375 94.709 49.2578Z" fill="#99FF69"/>
<path d="M19.0762 75.8184H16.2168V74.9336H19.0762V75.8184ZM24.1973 73.4277C24.6777 72.8379 25.3027 72.543 26.0723 72.543C27.4121 72.543 28.0879 73.2988 28.0996 74.8105V79H27.0156V74.8047C27.0117 74.3477 26.9062 74.0098 26.6992 73.791C26.4961 73.5723 26.1777 73.4629 25.7441 73.4629C25.3926 73.4629 25.084 73.5566 24.8184 73.7441C24.5527 73.9316 24.3457 74.1777 24.1973 74.4824V79H23.1133V70H24.1973V73.4277ZM31.1934 71.125V72.6602H32.377V73.498H31.1934V77.4297C31.1934 77.6836 31.2461 77.875 31.3516 78.0039C31.457 78.1289 31.6367 78.1914 31.8906 78.1914C32.0156 78.1914 32.1875 78.168 32.4062 78.1211V79C32.1211 79.0781 31.8438 79.1172 31.5742 79.1172C31.0898 79.1172 30.7246 78.9707 30.4785 78.6777C30.2324 78.3848 30.1094 77.9688 30.1094 77.4297V73.498H28.9551V72.6602H30.1094V71.125H31.1934ZM35.1191 71.125V72.6602H36.3027V73.498H35.1191V77.4297C35.1191 77.6836 35.1719 77.875 35.2773 78.0039C35.3828 78.1289 35.5625 78.1914 35.8164 78.1914C35.9414 78.1914 36.1133 78.168 36.332 78.1211V79C36.0469 79.0781 35.7695 79.1172 35.5 79.1172C35.0156 79.1172 34.6504 78.9707 34.4043 78.6777C34.1582 78.3848 34.0352 77.9688 34.0352 77.4297V73.498H32.8809V72.6602H34.0352V71.125H35.1191ZM42.9297 75.9004C42.9297 76.8652 42.709 77.6426 42.2676 78.2324C41.8262 78.8223 41.2285 79.1172 40.4746 79.1172C39.7051 79.1172 39.0996 78.873 38.6582 78.3848V81.4375H37.5742V72.6602H38.5645L38.6172 73.3633C39.0586 72.8164 39.6719 72.543 40.457 72.543C41.2188 72.543 41.8203 72.8301 42.2617 73.4043C42.707 73.9785 42.9297 74.7773 42.9297 75.8008V75.9004ZM41.8457 75.7773C41.8457 75.0625 41.6934 74.498 41.3887 74.084C41.084 73.6699 40.666 73.4629 40.1348 73.4629C39.4785 73.4629 38.9863 73.7539 38.6582 74.3359V77.3652C38.9824 77.9434 39.4785 78.2324 40.1465 78.2324C40.666 78.2324 41.0781 78.0273 41.3828 77.6172C41.6914 77.2031 41.8457 76.5898 41.8457 75.7773ZM48.0039 77.3184C48.0039 77.0254 47.8926 76.7988 47.6699 76.6387C47.4512 76.4746 47.0664 76.334 46.5156 76.2168C45.9688 76.0996 45.5332 75.959 45.209 75.7949C44.8887 75.6309 44.6504 75.4355 44.4941 75.209C44.3418 74.9824 44.2656 74.7129 44.2656 74.4004C44.2656 73.8809 44.4844 73.4414 44.9219 73.082C45.3633 72.7227 45.9258 72.543 46.6094 72.543C47.3281 72.543 47.9102 72.7285 48.3555 73.0996C48.8047 73.4707 49.0293 73.9453 49.0293 74.5234H47.9395C47.9395 74.2266 47.8125 73.9707 47.5586 73.7559C47.3086 73.541 46.9922 73.4336 46.6094 73.4336C46.2148 73.4336 45.9062 73.5195 45.6836 73.6914C45.4609 73.8633 45.3496 74.0879 45.3496 74.3652C45.3496 74.627 45.4531 74.8242 45.6602 74.957C45.8672 75.0898 46.2402 75.2168 46.7793 75.3379C47.3223 75.459 47.7617 75.6035 48.0977 75.7715C48.4336 75.9395 48.6816 76.1426 48.8418 76.3809C49.0059 76.6152 49.0879 76.9023 49.0879 77.2422C49.0879 77.8086 48.8613 78.2637 48.4082 78.6074C47.9551 78.9473 47.3672 79.1172 46.6445 79.1172C46.1367 79.1172 45.6875 79.0273 45.2969 78.8477C44.9062 78.668 44.5996 78.418 44.377 78.0977C44.1582 77.7734 44.0488 77.4238 44.0488 77.0488H45.1328C45.1523 77.4121 45.2969 77.7012 45.5664 77.916C45.8398 78.127 46.1992 78.2324 46.6445 78.2324C47.0547 78.2324 47.3828 78.1504 47.6289 77.9863C47.8789 77.8184 48.0039 77.5957 48.0039 77.3184ZM50.4648 78.4316C50.4648 78.2441 50.5195 78.0879 50.6289 77.9629C50.7422 77.8379 50.9102 77.7754 51.1328 77.7754C51.3555 77.7754 51.5234 77.8379 51.6367 77.9629C51.7539 78.0879 51.8125 78.2441 51.8125 78.4316C51.8125 78.6113 51.7539 78.7617 51.6367 78.8828C51.5234 79.0039 51.3555 79.0645 51.1328 79.0645C50.9102 79.0645 50.7422 79.0039 50.6289 78.8828C50.5195 78.7617 50.4648 78.6113 50.4648 78.4316ZM50.4707 73.2578C50.4707 73.0703 50.5254 72.9141 50.6348 72.7891C50.748 72.6641 50.916 72.6016 51.1387 72.6016C51.3613 72.6016 51.5293 72.6641 51.6426 72.7891C51.7598 72.9141 51.8184 73.0703 51.8184 73.2578C51.8184 73.4375 51.7598 73.5879 51.6426 73.709C51.5293 73.8301 51.3613 73.8906 51.1387 73.8906C50.916 73.8906 50.748 73.8301 50.6348 73.709C50.5254 73.5879 50.4707 73.4375 50.4707 73.2578ZM53.623 79.7324H52.6914L56.2539 70.4688H57.1797L53.623 79.7324ZM57.2559 79.7324H56.3242L59.8867 70.4688H60.8125L57.2559 79.7324ZM67.5977 77.5059L68.8164 72.6602H69.9004L68.0547 79H67.1758L65.6348 74.1953L64.1348 79H63.2559L61.416 72.6602H62.4941L63.7422 77.4062L65.2188 72.6602H66.0918L67.5977 77.5059ZM76.6211 77.5059L77.8398 72.6602H78.9238L77.0781 79H76.1992L74.6582 74.1953L73.1582 79H72.2793L70.4395 72.6602H71.5176L72.7656 77.4062L74.2422 72.6602H75.1152L76.6211 77.5059ZM85.6445 77.5059L86.8633 72.6602H87.9473L86.1016 79H85.2227L83.6816 74.1953L82.1816 79H81.3027L79.4629 72.6602H80.541L81.7891 77.4062L83.2656 72.6602H84.1387L85.6445 77.5059ZM88.3516 78.4316C88.3516 78.2441 88.4062 78.0879 88.5156 77.9629C88.6289 77.8379 88.7969 77.7754 89.0195 77.7754C89.2422 77.7754 89.4102 77.8379 89.5234 77.9629C89.6406 78.0879 89.6992 78.2441 89.6992 78.4316C89.6992 78.6113 89.6406 78.7617 89.5234 78.8828C89.4102 79.0039 89.2422 79.0645 89.0195 79.0645C88.7969 79.0645 88.6289 79.0039 88.5156 78.8828C88.4062 78.7617 88.3516 78.6113 88.3516 78.4316ZM94.123 79.1172C93.2637 79.1172 92.5645 78.8359 92.0254 78.2734C91.4863 77.707 91.2168 76.9512 91.2168 76.0059V75.8066C91.2168 75.1777 91.3359 74.6172 91.5742 74.125C91.8164 73.6289 92.1523 73.2422 92.582 72.9648C93.0156 72.6836 93.4844 72.543 93.9883 72.543C94.8125 72.543 95.4531 72.8145 95.9102 73.3574C96.3672 73.9004 96.5957 74.6777 96.5957 75.6895V76.1406H92.3008C92.3164 76.7656 92.498 77.2715 92.8457 77.6582C93.1973 78.041 93.6426 78.2324 94.1816 78.2324C94.5645 78.2324 94.8887 78.1543 95.1543 77.998C95.4199 77.8418 95.6523 77.6348 95.8516 77.377L96.5137 77.8926C95.9824 78.709 95.1855 79.1172 94.123 79.1172ZM93.9883 73.4336C93.5508 73.4336 93.1836 73.5938 92.8867 73.9141C92.5898 74.2305 92.4062 74.6758 92.3359 75.25H95.5117V75.168C95.4805 74.6172 95.332 74.1914 95.0664 73.8906C94.8008 73.5859 94.4414 73.4336 93.9883 73.4336ZM100.92 73.6328C100.756 73.6055 100.578 73.5918 100.387 73.5918C99.6758 73.5918 99.1934 73.8945 98.9395 74.5V79H97.8555V72.6602H98.9102L98.9277 73.3926C99.2832 72.8262 99.7871 72.543 100.439 72.543C100.65 72.543 100.811 72.5703 100.92 72.625V73.6328ZM103.1 79H102.016V72.6602H103.1V79ZM101.928 70.9785C101.928 70.8027 101.98 70.6543 102.086 70.5332C102.195 70.4121 102.355 70.3516 102.566 70.3516C102.777 70.3516 102.938 70.4121 103.047 70.5332C103.156 70.6543 103.211 70.8027 103.211 70.9785C103.211 71.1543 103.156 71.3008 103.047 71.418C102.938 71.5352 102.777 71.5938 102.566 71.5938C102.355 71.5938 102.195 71.5352 102.086 71.418C101.98 71.3008 101.928 71.1543 101.928 70.9785ZM107.383 78.2324C107.77 78.2324 108.107 78.1152 108.396 77.8809C108.686 77.6465 108.846 77.3535 108.877 77.002H109.902C109.883 77.3652 109.758 77.7109 109.527 78.0391C109.297 78.3672 108.988 78.6289 108.602 78.8242C108.219 79.0195 107.812 79.1172 107.383 79.1172C106.52 79.1172 105.832 78.8301 105.32 78.2559C104.812 77.6777 104.559 76.8887 104.559 75.8887V75.707C104.559 75.0898 104.672 74.541 104.898 74.0605C105.125 73.5801 105.449 73.207 105.871 72.9414C106.297 72.6758 106.799 72.543 107.377 72.543C108.088 72.543 108.678 72.7559 109.146 73.1816C109.619 73.6074 109.871 74.1602 109.902 74.8398H108.877C108.846 74.4297 108.689 74.0938 108.408 73.832C108.131 73.5664 107.787 73.4336 107.377 73.4336C106.826 73.4336 106.398 73.6328 106.094 74.0312C105.793 74.4258 105.643 74.998 105.643 75.748V75.9531C105.643 76.6836 105.793 77.2461 106.094 77.6406C106.395 78.0352 106.824 78.2324 107.383 78.2324ZM115.035 79C114.973 78.875 114.922 78.6523 114.883 78.332C114.379 78.8555 113.777 79.1172 113.078 79.1172C112.453 79.1172 111.939 78.9414 111.537 78.5898C111.139 78.2344 110.939 77.7852 110.939 77.2422C110.939 76.582 111.189 76.0703 111.689 75.707C112.193 75.3398 112.9 75.1562 113.811 75.1562H114.865V74.6582C114.865 74.2793 114.752 73.9785 114.525 73.7559C114.299 73.5293 113.965 73.416 113.523 73.416C113.137 73.416 112.812 73.5137 112.551 73.709C112.289 73.9043 112.158 74.1406 112.158 74.418H111.068C111.068 74.1016 111.18 73.7969 111.402 73.5039C111.629 73.207 111.934 72.9727 112.316 72.8008C112.703 72.6289 113.127 72.543 113.588 72.543C114.318 72.543 114.891 72.7266 115.305 73.0938C115.719 73.457 115.934 73.959 115.949 74.5996V77.5176C115.949 78.0996 116.023 78.5625 116.172 78.9062V79H115.035ZM113.236 78.1738C113.576 78.1738 113.898 78.0859 114.203 77.9102C114.508 77.7344 114.729 77.5059 114.865 77.2246V75.9238H114.016C112.688 75.9238 112.023 76.3125 112.023 77.0898C112.023 77.4297 112.137 77.6953 112.363 77.8867C112.59 78.0781 112.881 78.1738 113.236 78.1738ZM123.016 75.9004C123.016 76.8691 122.793 77.6484 122.348 78.2383C121.902 78.8242 121.305 79.1172 120.555 79.1172C119.754 79.1172 119.135 78.834 118.697 78.2676L118.645 79H117.648V70H118.732V73.3574C119.17 72.8145 119.773 72.543 120.543 72.543C121.312 72.543 121.916 72.834 122.354 73.416C122.795 73.998 123.016 74.7949 123.016 75.8066V75.9004ZM121.932 75.7773C121.932 75.0391 121.789 74.4688 121.504 74.0664C121.219 73.6641 120.809 73.4629 120.273 73.4629C119.559 73.4629 119.045 73.7949 118.732 74.459V77.2012C119.064 77.8652 119.582 78.1973 120.285 78.1973C120.805 78.1973 121.209 77.9961 121.498 77.5938C121.787 77.1914 121.932 76.5859 121.932 75.7773ZM127.018 79.1172C126.158 79.1172 125.459 78.8359 124.92 78.2734C124.381 77.707 124.111 76.9512 124.111 76.0059V75.8066C124.111 75.1777 124.23 74.6172 124.469 74.125C124.711 73.6289 125.047 73.2422 125.477 72.9648C125.91 72.6836 126.379 72.543 126.883 72.543C127.707 72.543 128.348 72.8145 128.805 73.3574C129.262 73.9004 129.49 74.6777 129.49 75.6895V76.1406H125.195C125.211 76.7656 125.393 77.2715 125.74 77.6582C126.092 78.041 126.537 78.2324 127.076 78.2324C127.459 78.2324 127.783 78.1543 128.049 77.998C128.314 77.8418 128.547 77.6348 128.746 77.377L129.408 77.8926C128.877 78.709 128.08 79.1172 127.018 79.1172ZM126.883 73.4336C126.445 73.4336 126.078 73.5938 125.781 73.9141C125.484 74.2305 125.301 74.6758 125.23 75.25H128.406V75.168C128.375 74.6172 128.227 74.1914 127.961 73.8906C127.695 73.5859 127.336 73.4336 126.883 73.4336ZM131.775 72.6602L131.811 73.457C132.295 72.8477 132.928 72.543 133.709 72.543C135.049 72.543 135.725 73.2988 135.736 74.8105V79H134.652V74.8047C134.648 74.3477 134.543 74.0098 134.336 73.791C134.133 73.5723 133.814 73.4629 133.381 73.4629C133.029 73.4629 132.721 73.5566 132.455 73.7441C132.189 73.9316 131.982 74.1777 131.834 74.4824V79H130.75V72.6602H131.775ZM137.084 75.7715C137.084 75.1504 137.205 74.5918 137.447 74.0957C137.693 73.5996 138.033 73.2168 138.467 72.9473C138.904 72.6777 139.402 72.543 139.961 72.543C140.824 72.543 141.521 72.8418 142.053 73.4395C142.588 74.0371 142.855 74.832 142.855 75.8242V75.9004C142.855 76.5176 142.736 77.0723 142.498 77.5645C142.264 78.0527 141.926 78.4336 141.484 78.707C141.047 78.9805 140.543 79.1172 139.973 79.1172C139.113 79.1172 138.416 78.8184 137.881 78.2207C137.35 77.623 137.084 76.832 137.084 75.8477V75.7715ZM138.174 75.9004C138.174 76.6035 138.336 77.168 138.66 77.5938C138.988 78.0195 139.426 78.2324 139.973 78.2324C140.523 78.2324 140.961 78.0176 141.285 77.5879C141.609 77.1543 141.771 76.5488 141.771 75.7715C141.771 75.0762 141.605 74.5137 141.273 74.084C140.945 73.6504 140.508 73.4336 139.961 73.4336C139.426 73.4336 138.994 73.6465 138.666 74.0723C138.338 74.498 138.174 75.1074 138.174 75.9004ZM145.334 72.6602V79.7324C145.334 80.9512 144.781 81.5605 143.676 81.5605C143.438 81.5605 143.217 81.5254 143.014 81.4551V80.5879C143.139 80.6191 143.303 80.6348 143.506 80.6348C143.748 80.6348 143.932 80.5684 144.057 80.4355C144.186 80.3066 144.25 80.0801 144.25 79.7559V72.6602H145.334ZM144.139 70.9785C144.139 70.8066 144.191 70.6602 144.297 70.5391C144.406 70.4141 144.564 70.3516 144.771 70.3516C144.982 70.3516 145.143 70.4121 145.252 70.5332C145.361 70.6543 145.416 70.8027 145.416 70.9785C145.416 71.1543 145.361 71.3008 145.252 71.418C145.143 71.5352 144.982 71.5938 144.771 71.5938C144.561 71.5938 144.402 71.5352 144.297 71.418C144.191 71.3008 144.139 71.1543 144.139 70.9785ZM151 79C150.938 78.875 150.887 78.6523 150.848 78.332C150.344 78.8555 149.742 79.1172 149.043 79.1172C148.418 79.1172 147.904 78.9414 147.502 78.5898C147.104 78.2344 146.904 77.7852 146.904 77.2422C146.904 76.582 147.154 76.0703 147.654 75.707C148.158 75.3398 148.865 75.1562 149.775 75.1562H150.83V74.6582C150.83 74.2793 150.717 73.9785 150.49 73.7559C150.264 73.5293 149.93 73.416 149.488 73.416C149.102 73.416 148.777 73.5137 148.516 73.709C148.254 73.9043 148.123 74.1406 148.123 74.418H147.033C147.033 74.1016 147.145 73.7969 147.367 73.5039C147.594 73.207 147.898 72.9727 148.281 72.8008C148.668 72.6289 149.092 72.543 149.553 72.543C150.283 72.543 150.855 72.7266 151.27 73.0938C151.684 73.457 151.898 73.959 151.914 74.5996V77.5176C151.914 78.0996 151.988 78.5625 152.137 78.9062V79H151ZM149.201 78.1738C149.541 78.1738 149.863 78.0859 150.168 77.9102C150.473 77.7344 150.693 77.5059 150.83 77.2246V75.9238H149.98C148.652 75.9238 147.988 76.3125 147.988 77.0898C147.988 77.4297 148.102 77.6953 148.328 77.8867C148.555 78.0781 148.846 78.1738 149.201 78.1738ZM156.678 73.6328C156.514 73.6055 156.336 73.5918 156.145 73.5918C155.434 73.5918 154.951 73.8945 154.697 74.5V79H153.613V72.6602H154.668L154.686 73.3926C155.041 72.8262 155.545 72.543 156.197 72.543C156.408 72.543 156.568 72.5703 156.678 72.625V73.6328ZM156.977 78.4316C156.977 78.2441 157.031 78.0879 157.141 77.9629C157.254 77.8379 157.422 77.7754 157.645 77.7754C157.867 77.7754 158.035 77.8379 158.148 77.9629C158.266 78.0879 158.324 78.2441 158.324 78.4316C158.324 78.6113 158.266 78.7617 158.148 78.8828C158.035 79.0039 157.867 79.0645 157.645 79.0645C157.422 79.0645 157.254 79.0039 157.141 78.8828C157.031 78.7617 156.977 78.6113 156.977 78.4316ZM161.137 72.6602L161.166 73.3633C161.631 72.8164 162.258 72.543 163.047 72.543C163.934 72.543 164.537 72.8828 164.857 73.5625C165.068 73.2578 165.342 73.0117 165.678 72.8242C166.018 72.6367 166.418 72.543 166.879 72.543C168.27 72.543 168.977 73.2793 169 74.752V79H167.916V74.8164C167.916 74.3633 167.812 74.0254 167.605 73.8027C167.398 73.5762 167.051 73.4629 166.562 73.4629C166.16 73.4629 165.826 73.584 165.561 73.8262C165.295 74.0645 165.141 74.3867 165.098 74.793V79H164.008V74.8457C164.008 73.9238 163.557 73.4629 162.654 73.4629C161.943 73.4629 161.457 73.7656 161.195 74.3711V79H160.111V72.6602H161.137ZM173.271 79.1172C172.412 79.1172 171.713 78.8359 171.174 78.2734C170.635 77.707 170.365 76.9512 170.365 76.0059V75.8066C170.365 75.1777 170.484 74.6172 170.723 74.125C170.965 73.6289 171.301 73.2422 171.73 72.9648C172.164 72.6836 172.633 72.543 173.137 72.543C173.961 72.543 174.602 72.8145 175.059 73.3574C175.516 73.9004 175.744 74.6777 175.744 75.6895V76.1406H171.449C171.465 76.7656 171.646 77.2715 171.994 77.6582C172.346 78.041 172.791 78.2324 173.33 78.2324C173.713 78.2324 174.037 78.1543 174.303 77.998C174.568 77.8418 174.801 77.6348 175 77.377L175.662 77.8926C175.131 78.709 174.334 79.1172 173.271 79.1172ZM173.137 73.4336C172.699 73.4336 172.332 73.5938 172.035 73.9141C171.738 74.2305 171.555 74.6758 171.484 75.25H174.66V75.168C174.629 74.6172 174.48 74.1914 174.215 73.8906C173.949 73.5859 173.59 73.4336 173.137 73.4336ZM177.221 79.7324H176.289L179.852 70.4688H180.777L177.221 79.7324Z" fill="#99FF69"/>
</svg>
